<svg id="Layer_1" data-name="Layer 1" xmlns="http://www.w3.org/2000/svg" viewBox="0 0 149 12"><defs><style>.cls-1{fill:#999189;}</style></defs><path class="cls-1" d="M3.566,10.256c0,.843.23,1.035,1.782,1.035v.517H0v-.517c1.054,0,1.418-.1,1.418-1.016V1.725C1.418.805,1.054.709,0,.709V.192H7.342A8.368,8.368,0,0,0,8.971.1l.058,3.278H8.588C8.339.978,7.744.767,5.521.767H3.566V5.521H5.157c1.514,0,1.61-.249,1.725-1.438H7.3v3.47H6.882c-.115-1.189-.211-1.419-1.725-1.419H3.566Z"/><path class="cls-1" d="M10.1,11.808v-.517c1.054,0,1.418-.1,1.418-1.016V1.725c0-.92-.364-1.016-1.418-1.016V.192h4.984V.709c-1.054,0-1.419.1-1.419,1.016v8.55c0,.92.365,1.016,1.419,1.016v.517Z"/><path class="cls-1" d="M26.4,12,18.46,2.147v8.07c0,.94.651,1.074,1.744,1.074v.517H15.987v-.517c1.092,0,1.706-.134,1.706-1.074V1.265A1.935,1.935,0,0,0,15.987.709V.192h3.738l6.1,7.84V1.783c0-.939-.652-1.074-1.745-1.074V.192h4.217V.709c-1.092,0-1.706.135-1.706,1.074V12Z"/><path class="cls-1" d="M32.088,11.808h-4.2v-.517c1.112,0,1.611-.154,1.956-1.093L33.641.1H34.7l4.084,10.179c.364.9.536,1.016,1.361,1.016v.517H35.271v-.517c1.495,0,1.629-.115,1.265-1.016L35.328,7.189H31.686l-1.074,2.99c-.345.92.192,1.112,1.476,1.112Zm-.172-5.252h3.163L33.43,2.4Z"/><path class="cls-1" d="M51.066,12,43.13,2.147v8.07c0,.94.651,1.074,1.744,1.074v.517H40.752v-.517c1.017,0,1.611-.134,1.611-1.074V1.284A2.35,2.35,0,0,0,40.407.709V.192H44.4l6.1,7.84V1.783c0-.939-.652-1.074-1.745-1.074V.192h4.217V.709c-1.092,0-1.706.135-1.706,1.074V12Z"/><path class="cls-1" d="M62.835.172h.288l.172,3.47-.44.019C62.567,1.668,61.513.633,59.577.633c-2.147,0-3.8,1.84-3.8,4.677,0,3.623,2.281,5.674,4.677,5.674a3.63,3.63,0,0,0,2.876-1.265l.326.345A5.03,5.03,0,0,1,59.481,12a5.826,5.826,0,0,1-5.9-5.9A5.93,5.93,0,0,1,59.557,0a9.672,9.672,0,0,1,2.8.671C62.586.671,62.72.5,62.835.172Z"/><path class="cls-1" d="M64.618,11.808v-.517c1.054,0,1.418-.1,1.418-1.016V1.725c0-.92-.364-1.016-1.418-1.016V.192H69.6V.709c-1.055,0-1.419.1-1.419,1.016v8.55c0,.92.364,1.016,1.419,1.016v.517Z"/><path class="cls-1" d="M74.317,11.808h-3.91v-.517A1.439,1.439,0,0,0,72.074,10.2L75.87.1h1.054l4.083,10.179c.364.9.537,1.016,1.361,1.016v.517H77.5v-.517c1.5,0,1.629-.115,1.265-1.016L77.557,7.189H73.915l-1.074,2.99c-.345.92.192,1.112,1.476,1.112Zm-.172-5.252h3.162L75.659,2.4Z"/><path class="cls-1" d="M83.173,11.808v-.517c1.054,0,1.418-.1,1.418-1.016V1.725c0-.92-.364-1.016-1.418-1.016V.192h4.965V.709c-1.055,0-1.4.1-1.4,1.016v8.626c0,.767.384.863,1.016.863h.595c2.242,0,2.971-.326,3.584-2.895l.422.058-.364,3.431Z"/><path class="cls-1" d="M107.326.1l.057,3.47h-.441c-.249-2.492-.843-2.8-3.067-2.8h-.709v9.489c0,.9.345,1.035,1.782,1.035v.517H99.217v-.517c1.438,0,1.8-.134,1.8-1.035V.767h-.709c-2.224,0-2.818.307-3.068,2.8H96.8L96.859.1a8.381,8.381,0,0,0,1.63.1H105.7A8.381,8.381,0,0,0,107.326.1Z"/><path class="cls-1" d="M108.457,11.808v-.517c1.054,0,1.418-.1,1.418-1.016V1.725c0-.92-.364-1.016-1.418-1.016V.192h4.984V.709c-1.055,0-1.419.1-1.419,1.016v8.55c0,.92.364,1.016,1.419,1.016v.517Z"/><path class="cls-1" d="M128.431.192V.709c-1.055,0-1.515.058-1.419.978l.9,8.626c.1.882.441.978,1.476.978v.517h-4.965v-.517c1.036,0,1.4-.1,1.323-.978l-.939-9.067L121.147,12h-.154L117.447,1.246l-.882,9.048c-.1.92.537,1,1.591,1v.517h-3.872v-.517c1.054,0,1.418-.173,1.495-1l.882-8.607c.1-.92-.365-.978-1.419-.978V.192h4.083l2.454,7.936L124.424.192Z"/><path class="cls-1" d="M137.708,7.553h-.422c-.114-1.189-.21-1.419-1.725-1.419H133.8v4.217c0,.767.384.863,1.016.863h.959c2.243,0,2.971-.326,3.585-2.895l.421.058-.4,3.431h-9.144v-.517c1.055,0,1.419-.1,1.419-1.016V1.725c0-.92-.364-1.016-1.419-1.016V.192h8.78l.038,2.894h-.441c-.268-2.051-.786-2.3-3.086-2.3H133.8V5.521h1.764c1.515,0,1.611-.249,1.725-1.438h.422Z"/><path class="cls-1" d="M146.947,9.412c0-1.054-.671-1.591-1.821-2.223l-1.84-.959c-1.38-.747-2.2-1.553-2.2-3.01A3.357,3.357,0,0,1,144.666,0a8.129,8.129,0,0,1,2.511.671c.269,0,.383-.173.5-.5H148l.172,3.259-.422.02A3.045,3.045,0,0,0,144.8.652a1.784,1.784,0,0,0-1.993,1.725c0,1.112.843,1.553,1.763,2.07l1.591.844c1.5.8,2.55,1.629,2.55,3.182A3.7,3.7,0,0,1,144.724,12c-1.553,0-2.32-.748-2.742-.748-.268,0-.4.23-.517.595h-.326l-.23-3.47.422-.058a3.276,3.276,0,0,0,3.316,3.049C145.893,11.368,146.947,10.812,146.947,9.412Z"/></svg>