<svg xmlns="http://www.w3.org/2000/svg" viewBox="0 0 693.94 99.67"><defs><style>.cls-1{fill:#231f20;}</style></defs><title>Asset 1</title><g id="Layer_2" data-name="Layer 2"><g id="Layer_1-2" data-name="Layer 1"><path class="cls-1" d="M13,12.89H23.76c9.82,0,14.15,3.1,14.15,9.4,0,5.48-4.34,9.2-13,9.2H13Zm-13,62H26.35C40.19,74.87,54,69.92,54,54A17.4,17.4,0,0,0,38.23,36.34v-.21c7.54-2.27,12.71-7.74,12.71-16,0-13.33-11.37-18.39-22.42-18.39H0ZM13,42.64h12.5C36.05,42.64,41,45.32,41,53c0,9.61-9.3,10.74-16,10.74H13Z"/><rect class="cls-1" x="62.53" width="12.4" height="74.87"/><path class="cls-1" d="M95.61,50.08c0-7.75,5.47-14.88,14.57-14.88s14.56,7.13,14.56,14.88S119.27,65,110.18,65,95.61,57.83,95.61,50.08m-12.4,0c0,15.6,12,26,27,26s27-10.43,27-26-12-26-27-26-27,10.44-27,26"/><path class="cls-1" d="M155.15,50.08c0-7.75,5.48-14.88,14.57-14.88s14.57,7.13,14.57,14.88S178.8,65,169.71,65s-14.57-7.13-14.57-14.88m-12.4,0c0,15.6,12,26,27,26s27-10.43,27-26-12-26-27-26-27,10.44-27,26"/><path class="cls-1" d="M204.24,25.28H216V33h.21c2.17-4.64,6.92-9,15.19-9,7.65,0,12.91,3,15.5,9.2,3.62-6.31,8.88-9.2,16.32-9.2,13.22,0,17.87,9.4,17.87,21.28V74.87h-12.4V46.77c0-6.2-1.86-11.57-9.19-11.57-7.75,0-10.64,6.41-10.64,12.81V74.87H236.48V45.32c0-6.09-2.48-10.12-8.47-10.12-8.16,0-11.36,6-11.36,12.61V74.87h-12.4Z"/><path class="cls-1" d="M332.27,50.08c0,7.75-5.48,14.88-14.57,14.88s-14.57-7.13-14.57-14.88,5.48-14.88,14.57-14.88,14.57,7.13,14.57,14.88m-41.12,24.8h11.78V67.44h.21c3.62,6,10.12,8.68,17,8.68,15.29,0,24.48-11.37,24.48-26s-9.81-26-24-26c-9.3,0-14.26,4.34-16.84,7.54h-.31V0h-12.4Z"/><path class="cls-1" d="M362.67,45.12c.93-7.13,5.48-11.78,12.81-11.78,7.75,0,12.5,4.54,12.6,11.78Zm37.81,9.29V51c0-17.25-9.4-27-23.25-27-15,0-27,10.43-27,26s12,26,27,26a25.84,25.84,0,0,0,21-9.92l-8.88-6.71c-3.1,3.82-7.13,6.71-13.33,6.71-6.92,0-12.5-4.44-13.33-11.78Z"/><path class="cls-1" d="M408.57,25.28H421v7.85h.21A15.79,15.79,0,0,1,435.84,24a16,16,0,0,1,4.44.72v12a24.78,24.78,0,0,0-6-.93c-11.67,0-13.33,9.82-13.33,12.5V74.87H408.57Z"/><path class="cls-1" d="M468,35.2c9,0,14.67,6,14.67,14.56,0,8.27-5.58,14.57-14.77,14.57A14.31,14.31,0,0,1,453.34,50c0-8.78,6-14.77,14.67-14.77m14.67-9.92v7.44h-.21c-3.61-6-10.12-8.68-17-8.68-15.29,0-24.48,11.37-24.48,26,0,14,9.81,25.42,24.69,25.42,6.2,0,12.61-2.38,16.22-7.23h.2v3.62c0,9.82-3.72,16.63-15.7,16.63-6.92,0-12.09-2.58-17-7.13l-7.44,10.13c7,6.2,15.39,8.16,24.59,8.16,19.32,0,28-11.36,28-29.23V25.28Z"/><path class="cls-1" d="M559.67,74.87,524.3,17.3h-.21V74.87H510.83V.36h17.58L563,56.14h.21V.36h13.26V74.87Z"/><path class="cls-1" d="M585.86,74.87V.36h49.36V11.94h-36.1V30.88h34.21V42H599.12v21h38V74.87Z"/><path class="cls-1" d="M659.11,43.51V74.87H645.85V.36h48.1V11.94H659.11V32.35h32.84V43.51Z"/></g></g></svg>