<svg xmlns="http://www.w3.org/2000/svg" fill="none" viewBox="0 0 97 75">
  <path fill="#FFB81C" d="M92.2723 44.82c1.18-2.4 1.66-4.85 1.44-7.32-.29-3.24-1.6-5.86-2.97-8.21-.15-.26-.31-.53-.47-.8-.61-1.03-1.19-2.01-1.4-2.74.01-.08.03-.24.09-.52.37-1.74.73-3.8.39-6.18-.51-3.42-3.41-5.89-6.91-5.89-.38 0-.75.03-1.12.08-.39-.69-.86-1.33-1.39-1.92-.99-1.1-2.04-1.78-2.8-2.27-.12-.08-.28-.18-.4-.26-.24-.57-.41-1.97-.47-2.53-.41-3.57-3.42-6.26-6.97-6.26-3.68 0-6.67 2.8-6.94 6.51-.17 2.27-.32 4.41-1.1 5.6-.08.12-.15.2-.2.25-.23.04-.64.08-.95.12-.45.05-.95.1-1.5.19-2.39.38-4.24 1.36-5.66 2.47-1.13-2.41-3.6-4.06-6.45-4.06-3.27 0-6.02 2.27-6.68 5.44-.23-.17-.45-.33-.64-.47.03-.56.15-1.27.27-2.01.31-1.83.69-4.1.21-6.71l-.01-.11-.06-.27c-.08-.35-.16-.65-.25-.95l-.03-.1-.03-.1c-.97-2.87-3.65-4.8-6.68-4.8-2.28 0-4.42 1.08-5.74 2.89-.98 1.35-1.43 2.97-1.29 4.61-.18.2-.39.41-.55.58-.52.54-1.1 1.14-1.63 1.84-2.34 3.05-3.59 6.94-3.47 10.75-.96-.51-2.05-.78-3.17-.78-1.96 0-3.84.83-5.16 2.27-1.28 1.4-1.92002 3.27-1.76002 5.15.11 1.23.05 2.11-.18 2.64-.22.5-.65 1.16-1.1 1.85-.43.66-.92 1.41-1.38 2.25-1.96 3.6-2.4 7.58-1.26 10.89.01.04.01.09.02.13-3.87 3.17-5.599996 7.36-4.68 11.57 1.21 5.52 6.33 8.32 8.52 9.52 8.69002 4.77 19.32002 7.09 32.49002 7.09 2.22 0 4.5-.06 6.98-.19 7.85-.4 14.26-1.02 20.17-1.94 2.65-.41 6.13-1.02 9.62-2.07 3.9-1.18 6.96-2.73 9.34-4.73 2.39-2.01 5.04-4.58 6.55-8.38 1.71-4.35.59-9.04-2.64-12.12Z"/>
  <path fill="#E10000" d="M86.9046 48.2705c-2.3701-1.2909-5.292-1.5859-7.9051-2.0578-3.196-.5761-6.4059-1.0758-9.6262-1.5061-12.7703-1.6969-25.6585-2.155-38.4634-.5969-1.6032.1944-3.196.4546-4.7854.7392-.1874.0347-.34.1353-.458.2741-2.1828.4581-4.3551.9578-6.5101 1.5304-2.7657.7322-5.5592 1.5303-8.0161 3.0364-2.25558 1.3846-4.67082 3.7269-4.02884 6.6488.58299 2.6582 3.32794 4.3238 5.53494 5.5349 10.9865 6.0277 24.024 6.7981 36.2806 6.17 6.5274-.3331 13.0895-.871 19.551-1.8774 2.9635-.4615 5.934-1.0202 8.8073-1.8877 2.5193-.7635 5.174-1.867 7.204-3.5743 2.0093-1.69 3.8519-3.5257 4.8409-6.0069 1.0168-2.5679-.0381-5.1289-2.4256-6.4267Zm-1.5442 8.5644c-1.5963 1.5511-3.7999 2.5505-5.8716 3.307-2.3979.8745-4.886 1.5061-7.381 2.0301-5.8612 1.2249-11.8333 1.7732-17.7951 2.2278-11.5313.8814-23.4202 1.0966-34.4518-2.8802-2.5402-.9161-4.9311-2.1064-7.3013-3.3869-1.6587-.8953-3.71652-2.4534-2.325-4.4661 1.4054-2.037 4.0948-3.196 6.3435-3.9942 2.7206-.9647 5.5488-1.6483 8.3458-2.3528 1.1035-.2776 2.2139-.5309 3.3209-.7842 11.3856-1.4644 22.8754-1.5685 34.3061-.4546 5.9861.583 11.9305 1.4956 17.8298 2.6408 1.2562.2429 2.5297.4372 3.7651.7773.9682.2672 2.0266.6281 2.7345 1.3742 1.8322 1.919-.0451 4.5286-1.5199 5.9618Z"/>
  <path fill="#E10000" d="M81.321 51.3726c-.9543-.9335-2.2348-1.2007-3.5118-1.3534-1.0445-.1249-1.2492 1.5824-.2464 1.8219.7912.1874 1.9121.3852 2.3112 1.1972.406.8224-.3748 1.3742-.9994 1.7628-1.454.9057-3.0364 1.6102-4.6466 2.214.0416-.6628-.1735-1.3326-.7148-1.7594-.9127-.7218-2.3251-.7565-3.4355-.7565-1.2285 0-2.6304.1388-3.6784.8398-.9994.6663-1.7871 1.9155-1.4089 3.1509.0937.3054.2533.5414.4581.7322-1.5096.2221-3.0295.3887-4.5494.5136-2.6096.2186-5.2261.347-7.8426.4095.5032-.937.1423-2.0613-.7496-2.6894-.8918-.6281-2.1723-.7357-3.2238-.6038-1.0132.1284-2.2972.4234-2.8628 1.3707-.3436.5761-.3124 1.3534.0555 1.9086.0069.0069.0139.0139.0173.0208-.8987-.0173-1.7975-.0416-2.6963-.0729.4962-.4823.8363-1.0965.8641-1.8114.059-1.4852-1.395-2.1064-2.6339-2.2521-1.6032-.1874-3.2515-.1076-4.8409.1353-1.2701.1943-2.7102.5136-3.4736 1.6483-.4164.6177-.3679 1.173-.0729 1.6484-.1388-.0104-.2776-.0208-.4129-.0313-2.6061-.2255-5.1984-.5101-7.7836-.8987-1.1035-.1666-2.2279-.3019-3.3106-.5865-.7842-.2082-1.6726-.4615-2.1862-1.1382-.4129-.5448-1.0966-.8328-1.7385-.4546-.5414.3158-.8676 1.1833-.4546 1.7386 1.3152 1.7732 3.2828 2.4013 5.3961 2.6651 2.5749.3261 5.174.5101 7.7593.7391 5.3718.4789 10.7506.6559 16.1432.7114 5.063.052 10.1642-.0035 15.2063-.4685 4.6431-.4268 9.3729-1.2215 13.7141-2.9739 1.225-.4963 2.4326-1.0446 3.5951-1.6796 1.0237-.5587 2.096-1.2041 2.6374-2.2868.5795-1.173.2429-2.509-.6837-3.4112ZM42.6043 58.83c-.3921.465-1.0202.6316-1.5164.9543-.0798.052-.1388.111-.1909.177-1.3534-.0694-2.7067-.1458-4.0601-.2429-.0833-.066-.1839-.118-.3158-.1458-.5968-.1284-1.1555-.3678-1.6136-.7808-.0312-.0277-.0625-.059-.0902-.0902.0243-.0486.0486-.1041.0798-.1458.1423-.1908.347-.3192.5517-.4337.4789-.2603 1.0446-.3609 1.5755-.4616.7357-.1388 1.4783-.2255 2.2244-.2706.7218-.0451 1.447-.0556 2.1688.0034.413.0313.9717.0764 1.2875.3818.3123.2984.1422.7634-.1007 1.0549Zm5.646.8502c-.1804-.0417-.3574-.0972-.4511-.1701-.1354-.1041-.1805-.1908-.2152-.3123-.0069-.0312-.0104-.0416-.0138-.0555v-.0486c.0034-.0069.0069-.0277.0138-.0486.0035-.0069.0104-.0173.0174-.0312.0208-.0208.0902-.0972.1249-.1319.0208-.0104.1249-.0798.1284-.0832.0278-.0174.2741-.1389.1874-.1007.0902-.0382.1839-.0659.2741-.0937.2638-.0833.5379-.1527.8121-.1908.4407-.0625.9091-.0556 1.3568-.0139.3817.0382.8085.1145 1.1209.347.111.0833.2047.1943.2533.3193.0624.1631.0277.2221-.0243.3123-.0486.0833-.1596.1943-.2429.2498-.0798.0555-.1666.1007-.2533.1423-.0105.0069-.0105.0069-.0174.0069-.059.0209-.118.0417-.1804.0625-.3818.1249-.767.2013-1.1348.3505-.4129 0-.8259-.0035-1.2388-.0035-.0764-.2429-.2603-.4476-.5171-.5066Zm24.2218-2.0509c-1.3811.4442-2.7831.8051-4.1989 1.0966-.3366-.0902-.6697-.1909-.989-.3262-.3123-.1319-.6003-.2256-.5934-.5691.0208-.8259 1.0202-1.284 1.7663-1.4506 1.0445-.2325 2.2383-.2637 3.2932-.0867.3227.0555.7739.1284.8953.4199.118.2811-.0382.6211-.1735.9161Z"/>
  <path fill="#E10000" d="M61.9262 54.4958c-.7148-.5622-1.6309-.701-2.5158-.7461-.9474-.0486-1.8947.0173-2.8352.1457-.8536.118-1.8149.184-2.6026.5553-.8328.3956-1.2041 1.2909-1.0272 2.1758.1597.8155.819 1.4401 1.5443 1.7871 1.9294.9265 4.1503.6732 6.1977.3852.2429-.0347.4199-.2221.5136-.4442.0139-.0035.0243-.0069.0382-.0104.7391-.2637 1.4401-.819 1.5997-1.624.1735-.8606-.2429-1.7004-.9127-2.2244Zm-1.4817 2.4534c-.753.1631-1.4783.1527-2.2036.4581-.0139.0069-.0173.0173-.0312.0243-.6177.0208-1.2319-.0105-1.8288-.1354-.5275-.111-1.1313-.2603-1.5477-.6281-.2117-.1874-.4268-.5656-.1319-.7461.1805-.1076.4269-.1318.6281-.17.354-.0694.7114-.1319 1.0654-.1909.6906-.1145 1.3881-.2117 2.0856-.2533.7183-.0416 2.842-.236 2.8976.9196.0312.4719-.5726.642-.9335.7218Zm12.7249-7.3571c-.3401-.5517-.9682-.8606-1.5755-1.0271-1.3985-.3818-2.967-.3054-4.3446.1145-.6385.1943-1.3117.4511-1.7906.9369-.524.531-.6941 1.2909-.3748 1.9746.753 1.624 2.8282 1.7003 4.3342 1.395.0868-.0174.1631-.0556.2291-.1076.5795-.0417 1.159-.1249 1.7281-.1839.3748-.0382.7981-.0313 1.1417-.2048.3505-.177.5413-.4789.6801-.8328.2603-.6559.3644-1.4367-.0277-2.0648Zm-1.166 1.4367c-.0173.0729-.0347.2498-.0902.3054-.0104.0104-.0243.0173-.1145.0138-.3193-.0104-.6628.059-.9821.0833-.6836.059-1.3846.0937-2.0613.2325-.0173.0035-.0277.0139-.0451.0174-.7669.118-1.69.118-2.207-.5171-.1978-.2464-.1353-.3678.0867-.5517.2985-.2499.6906-.3713 1.0584-.4789.9682-.2915 2.0058-.3748 3.0087-.2325.3748.052.7912.1249 1.1104.3366.2881.1908.3332.4129.236.7912Zm-16.0148-1.3324c-.3643-.7253-1.1833-.9613-1.9155-1.1279-.9127-.2082-1.86-.3088-2.797-.3088-.9439 0-1.8912.1076-2.8212.288-.8502.1631-1.742.3679-2.4118.9509-.6801.5899-1.0029 1.6101-.5656 2.436.3574.6732 1.0514 1.0029 1.7767 1.1174.9508.1492 1.9502.1145 2.9115.0902 1.1243-.0277 2.2382-.1422 3.3487-.3123.1492-.0243.2707-.1041.3644-.2151.517-.1007 1.0133-.2811 1.4297-.6073.6697-.524 1.0861-1.5026.6801-2.3111Zm-1.4366.9161c-.2499.4407-.7322.6142-1.225.7218-.0729-.0035-.1457-.007-.2221.0034-1.6761.2707-3.4667.4616-5.1601.2638-.2742-.0313-1.0376-.1249-.9231-.5483.1458-.5483 1.0202-.6802 1.4714-.7912 1.565-.3852 3.2376-.5205 4.8339-.2429.354.0624.7218.1249 1.0584.2429.2325.0798.2984.118.1666.3505Zm-24.3574 2.0821c-.3019-.6593-.9786-1.0237-1.6414-1.2354-1.7143-.5483-3.6194-.6281-5.3892-.3748-.8953.1284-1.8808.3089-2.5332.9925-.4476.472-.6697 1.2076-.4997 1.8427.0035.0208-.0035.0381.0035.059.1874.8432.9959 1.3603 1.7628 1.6171.8433.281 1.7455.2706 2.6235.2463.9439-.0277 1.8877-.052 2.8282-.1839.8085-.1145 1.6483-.2533 2.2937-.7912.6386-.5309.9058-1.4019.5518-2.1723Zm-2.2556 1.2562c-.7704.1735-1.5651.2499-2.3528.2984-1.3013.0798-3.1891.3679-4.0184-.8744-.0174-.0243-.0382-.0347-.0556-.0556.2881-.6732 2.7311-.8328 3.085-.8502.812-.0381 1.631-.0034 2.4326.1319.4997.0833 1.4783.1527 1.8253.6038.3505.4477-.6559.6871-.9161.7461Zm14.1306-2.1512c-.4338-.5171-1.1313-.7634-1.7594-.9508-.6489-.1943-1.3325-.3019-2.0092-.3227-1.3915-.0486-2.7484.2776-3.9976.8779-.642.3054-1.5998.8502-1.107 1.7143.3574.6281 1.2978.8606 1.9467 1.0237 1.6345.406 3.3175.3574 4.9867.2706.1318-.0069.2394-.052.3331-.1075.5587-.118 1.1243-.1701 1.5616-.6004.5309-.5344.5136-1.3429.0451-1.9051Zm-1.9259 1.2389c-.007 0-.0105-.0035-.0174-.0035-1.0133.0555-2.0335.1076-3.0503.0347-.4858-.0347-.9647-.1041-1.4366-.2325-.2082-.0555-.4095-.1215-.6108-.1978.0937-.0417.1839-.0833.2603-.1145.3574-.1562.7391-.2742 1.1174-.3644.7877-.1909 1.5928-.2256 2.3979-.1492.6697.0659 1.5373.2117 2.0925.6177.0312.0243.1041.0728.1353.1145-.0347.0382-.0867.0555-.1318.0763-.243.1111-.5032.1527-.7565.2187Zm-6.399-3.651c-.0138-.1111-.0589-.2048-.111-.2915-.0104-.0243-.0139-.0486-.0243-.0694-.3019-.5726-1.0792-.5865-1.6448-.5587-.6386.0347-1.2285.1873-1.8149.4372-.0903.0382-.1736.1284-.236.2256-.1354.1249-.2325.2915-.2568.4719-.0382.2846.0937.6316.3678.7669.1978.0972.3679.2429.5657.3401.229.1145.4719.2186.7252.2672.5622.1076 1.1348.0069 1.6137-.3123.2394-.1596.4615-.347.6142-.5934.0312-.0486.0486-.1041.0729-.1562.0138-.0208.0312-.0416.0416-.0624.0763-.1458.1076-.2985.0867-.465Zm11.1465-1.1657c-1.9919-.7357-4.2302-.7287-6.2602-.1527-.0833.0243-.1493.059-.2117.0972-.0902-.0035-.1805-.0104-.2672-.0104-.4581-.007-.8467.3956-.8467.8467 0 .4962.3886.7981.8467.8467.6385.0659 1.2978.0382 1.9398.0312.6246-.0069 1.2493.0035 1.8774-.0034.6246-.007 1.2527-.0208 1.8773-.0451.5726-.0209 1.4054-.0243 1.5304-.7565.0659-.3991-.1041-.7149-.4858-.8537Zm18.173 2.2555c-.4372-.1908-.8884-.3331-1.3603-.4025-.9508-.1423-1.9433-.0555-2.849.2637-.2429.0868-.4511.2603-.5795.4789-.0035.0069-.0104.0104-.0174.0174-.0173.0277-.0208.0555-.0347.0832-.0069.0174-.0139.0347-.0208.0486-.1457.3436-.0694.7565.1839 1.0272.2013.2151.4685.2707.7461.3158.465.0694.9265.1457 1.395.1908.406.0382.812.0556 1.218.0556.4199 0 .8364-.0521 1.2563-.059.2914-.0035.5829-.1562.7287-.4165.3574-.6454-.0347-1.329-.6663-1.6032Zm-32.0263 6.0449c-.0625-.1909-.1805-.3713-.3609-.4685-.0625-.0277-.1249-.052-.1874-.0798-.111-.0312-.2221-.0278-.3331-.0104-.1944.0139-.3887-.0035-.583.0104-.2568.0173-.5136.0555-.7669.1041-.0451.0104-.0902.0278-.1354.0486-.0728.0069-.1457.0139-.2151.0277-.1978.0347-.3331.1458-.4858.2673-.1076.1075-.1805.2325-.2221.3782-.0347.1145-.0417.229-.0139.3435.0347.2534.1735.5067.4095.6281.1908.1007.3817.1527.6003.1389.1458-.0105.2915-.0382.4338-.0695.1457-.0312.2915-.0624.4372-.0971.295-.0729.59-.1596.878-.2568.1943-.0659.3643-.1805.4685-.3609.0971-.17.1388-.4164.0763-.6038Zm17.3163-1.4988c0-.0729-.0173-.1423-.0555-.2048-.0312-.1006-.0902-.1874-.17-.2637-.1562-.1423-.3609-.2499-.5761-.2394-.177.0069-.3539.0208-.5309.0208h-.3921c-.2395.0034-.5206.0833-.6802.2741-.0833.0764-.1423.1666-.177.2742-.052.1006-.0763.2116-.0729.3262.0105.2186.0799.4511.2499.6003.059.0521.118.1006.1839.1423.1354.0798.2811.118.4373.118.0208.0034.0381 0 .059 0h.0034c.1596.0555.3262.0659.4997.0208.1041-.0278.2048-.0521.3089-.0798.052-.0139.1041-.0278.1561-.0382.1145-.0278.2221-.0763.3262-.1319-.0659.0278-.1284.0556-.1943.0833.0139-.0035.0243-.0069.0382-.0104.1075-.0243.1978-.0729.2776-.1457.0902-.059.1596-.1354.2117-.2291.0277-.0659.0555-.1284.0832-.1943.0313-.1076.0382-.2152.0139-.3227Zm28.4347-1.6175c0-.0798-.0209-.1562-.0625-.2256-.0347-.111-.0972-.2047-.1839-.288-.059-.0451-.1215-.0937-.1805-.1388-.1388-.0798-.288-.1215-.4476-.1215-.1215-.0104-.2395-.0208-.3609-.0243-.059 0-.118-.0034-.177 0-.0312 0-.059 0-.0867.0035-.1215.0104-.184.0104-.2742.0417-.0729.0312-.1457.0624-.2186.0937-.0694.0451-.1353.0971-.1943.1526-.1111.1146-.1909.2464-.2325.3991-.0104.0347-.0139.0694-.0174.1041-.0382.059-.0694.1249-.0867.1943-.0347.1146-.0417.2291-.0139.3471.0069.1145.0382.222.1041.3227l.1353.177c.1076.1075.236.1804.3817.2221.0764.0104.1527.0208.2291.0312.1561 0 .3019-.0417.4372-.118.059-.0312.118-.059.177-.0868.0763-.0312.1561-.0589.236-.0832.0416-.0035.0867-.0104.1284-.0174.0243-.0035.0485-.0104.0728-.0139.1145-.0277.2152-.0798.3019-.1596.0972-.0625.1735-.1457.2291-.2499.0312-.0694.059-.1422.0902-.2116.0347-.1145.0416-.2325.0139-.3505Zm10.945-15.3657c-.1873-2.0821-1.1416-3.9491-2.1758-5.7327-.982-1.6865-2.0925-3.3661-2.5471-5.2886-.2429-1.0306-.1284-2.0196.0868-3.0433.2915-1.3742.524-2.6616.3158-4.0671-.1562-1.0549-1.8253-.9681-2.0474 0-.2985 1.2909-.8155 2.5124-1.6171 3.5743-.4789.6316-1.461 1.8288-2.3944 1.5859-1.0688-.2776-.8433-1.9815-.7322-2.7519.1839-1.2596.399-2.4881.2359-3.7616-.1527-1.1938-.5621-2.325-1.3811-3.2342-.7981-.8884-1.9225-1.3395-2.8108-2.1134-1.7351-1.513-2.0995-4.0913-2.3563-6.24975-.1492-1.25273-1.8912-1.30131-1.9884 0-.2117 2.88719-.4338 5.93745-2.0613 8.42905-.6593 1.0133-1.5581 1.8912-2.6547 2.4187-1.2596.6038-2.7067.5691-4.0601.7877-2.436.3922-3.8865 1.8982-5.1289 3.9109-.8467 1.3707-1.9294 3.6923-3.9004 3.4528-1.2909-.1596-2.3493-1.2874-2.7901-2.4534-.2602-.6905-.3713-1.4193-.399-2.1549.2325-1.0689.3227-2.1793.2602-3.3036-.0555-1.0307-1.742-1.4089-1.919-.2603-.1492.9647-.2706 1.9815-.2915 2.9878-.3123 1.2562-.871 2.4569-1.6379 3.4979-.6385.8711-1.4679 1.69-2.4048 2.2314-.6142.3539-1.6761.8189-2.3563.3782-.7287-.4719-.6454-1.8704-.805-2.62-.236-1.1035-.8259-2.0057-1.69-2.7241-.7947-.6593-1.7733-1.1694-2.4222-1.9884-.7114-.8987-.8918-2.0925-.8988-3.2064-.0208-2.7241 1.107-5.2955.5657-8.00222-.0035-.02429-.007-.05205-.0104-.07981-.0382-.18739-.0868-.37131-.1423-.5587-.4164-1.24579-2.3944-.71832-1.9815.54829.8918 2.55404-2.1168 4.55634-3.4528 6.30534-1.5685 2.0474-2.391 4.6916-2.2174 7.27.1735 2.613 1.2631 5.0942.2463 7.669-.7634 1.9364-2.5887 3.3731-4.7367 3.0226-1.0654-.1735-2.0162-.7635-2.4812-1.7559-.583-1.2458-.7045-2.5402-1.6275-3.6229-.4859-.5726-1.5928-.1249-1.5269.6316.1631 1.8704.1006 3.8067-.6628 5.5557-.7114 1.631-1.8566 3.0225-2.7067 4.5772-1.3256 2.4326-1.9225 6.0207.4893 8.023.9022.7496 2.207-.5448 1.2978-1.2978-2.3458-1.9433-.5969-5.292.6801-7.2943.8711-1.3638 1.7664-2.7172 2.2626-4.2753.1284-.3991.2256-.8085.3019-1.218.0347.0659.0625.1353.1006.2013.5969 1.0028 1.5686 1.6934 2.6513 2.0821 2.2729.812 4.8894.0555 6.4267-1.7802 1.8253-2.1862 2.0995-4.945 1.6379-7.6622-.2637-1.565-.6038-3.0884-.3747-4.6847.2047-1.4193.753-2.7761 1.5719-3.9525.6073-.8711 1.3812-1.6033 2.1064-2.3806-.1735 1.0897-.3435 2.1793-.3296 3.255.0173 1.3257.3019 2.6964 1.0653 3.7999.7079 1.0237 1.7455 1.6518 2.6304 2.4916.8988.8536.9508 1.86 1.1694 3.019.243 1.3048.937 2.4777 2.2348 2.9497 2.4951.9091 5.0873-1.0341 6.576-2.8629.4268-.524.7912-1.0758 1.1174-1.6484.3748.8363.9231 1.5998 1.7282 2.2348 1.1521.9127 2.613 1.3742 4.0705 1.0237 1.1937-.288 2.1098-1.0931 2.8316-2.0474 1.2875-1.7004 2.0127-4.4106 4.2093-5.174 1.5339-.5344 3.2238-.3297 4.7646-.8537 1.3603-.4615 2.561-1.3117 3.491-2.4048 1.2492-1.4679 1.971-3.1648 2.4152-4.9623.1041.2255.2186.4476.3436.6662.5656.9752 1.3395 1.7317 2.2521 2.384.7877.5622 1.6761 1.0584 2.0786 1.9919.9682 2.2348-.4268 4.6466-.0243 6.9334.4269 2.4153 2.7762 3.6888 4.9867 2.5853.4962-.2464.9508-.5795 1.3638-.9647 0 .3956.0208.7877.0798 1.1903.2845 1.9224 1.2735 3.6506 2.2417 5.3059.9265 1.5893 1.9745 3.1995 2.3285 5.0352.4268 2.2105-.7981 4.2024-1.8913 6.0242-.6176 1.0306.9023 2.2868 1.7074 1.3152 1.6379-1.9537 2.9531-4.2579 2.7136-6.9091Z"/>
  <path fill="#E10000" d="M79.3982 37.1173c-.2915-.7773-1.2631-1.86-1.0341-2.7137.1458-.5344.4997-.9439.5379-1.5234.0382-.5552-.1527-.9994-.5171-1.4124-.4372-.4962-1.4609-.4129-1.7455.2256-.7218 1.624-2.1307 2.9149-3.8414 3.4424-.3609.111-.7565.229-1.1383.2152-.4893-.0174-.465-.1389-.4129-.6039.111-.9994.5448-2.0092 1.1625-2.7969.6524-.8363.0694-2.0266-1.0445-1.7976-.7253.1493-1.3846.3956-2.0336.7531-.6246.3435-1.2006.812-1.86 1.0896-.3921.1631-1.0167.3574-1.4123.1076-.4789-.3019-.413-1.0098-.288-1.4853.2047-.7703.6385-1.4817.9994-2.1862.3956-.7738.7842-1.5477 1.1833-2.3215.8363-1.6241 1.631-3.2897 2.62-4.827.6836-1.0654-.8884-2.2799-1.7559-1.3534-1.6414 1.7559-3.0642 3.6888-4.8444 5.3163-1.8322 1.6761-3.8484 2.8213-6.2324 3.5222-2.5367.7427-4.9867 1.4332-7.152 3.0121-1.0168.7427-1.9711 1.5686-2.8525 2.4673-.7912.8051-1.5269 1.9225-2.5263 2.4777-.3401.1874-.8814.3609-1.2389.1041-.4164-.2984-.229-1.0271-.1665-1.4644.2117-1.454.6315-2.9184 1.2874-4.2336.4928-.989-.6663-1.853-1.4956-1.1555-1.3118 1.1-2.62 2.2035-3.9456 3.2897-1.107.9092-2.3389 1.9051-3.8484 1.8739-1.4818-.0313-2.1134-1.1035-2.3945-2.4291-.3609-1.697-.3747-3.4529-.1561-5.1706.1041-.8294-1.166-.9196-1.402-.1909-.982 3.033-2.7622 5.8299-5.1671 7.9294-1.2735 1.1104-2.7032 2.03-3.7096 3.4146-.9369 1.2875-1.395 2.9393-.9196 4.4939.3609 1.1833 2.2314.6697 1.8531-.5101-.4754-1.4852.3991-2.8698 1.4297-3.8797 1.1591-1.1382 2.5194-2.0404 3.6437-3.2168 1.0029-1.048 1.8565-2.214 2.554-3.4667.1944 2.3146 1.0654 4.4487 3.4737 4.9311 1.86.3713 3.6367-.4234 5.1011-1.5165.6767-.5066 1.3256-1.0584 1.9642-1.6205-.0452.1804-.0972.3574-.1354.5378-.2672 1.2875-.5274 2.7658.4824 3.8103.8675.8953 2.3146 1.0098 3.4181.5587 1.2944-.5275 2.1758-1.6518 3.137-2.6165 2.096-2.1099 4.2892-3.7686 7.1798-4.6049 1.4991-.4338 3.0364-.76 4.4835-1.3534 1.2666-.5205 2.4464-1.1868 3.5395-2.0092.0556-.0417.1076-.0868.1631-.1284-.6246 1.1347-1.1278 2.3389-1.0063 3.5812.2013 2.0439 1.9155 3.2307 3.9005 2.9184.7495-.118 1.447-.4268 2.0925-.8155-.0764.3887-.118.7808-.1215 1.1729-.0139 1.6032 1.2285 2.509 2.7519 2.4847 1.5685-.0243 3.0572-.6455 4.2718-1.6171.17.5031.4268.9855.6662 1.4609.6628 1.3187.6316 3.0572-.3088 4.2475-.3679.465-.4442 1.0827 0 1.5373.3956.4025 1.1451.4338 1.5373 0 1.4436-1.6032 2.0439-3.8935 1.2735-5.9548Z"/>
</svg>
