<svg xmlns="http://www.w3.org/2000/svg" xmlns:xlink="http://www.w3.org/1999/xlink" width="791.872" height="1027.872" viewBox="0 0 593.904 770.904" version="1.2"><defs><symbol overflow="visible" id="c"><path d="M99.297-50.484c0-33.594-20.328-50.891-47.844-50.891-25.172 0-48.687 16.594-48.687 52 0 33.469 20.328 51.031 47.984 51.031 25.313 0 48.547-17 48.547-52.14zM51.03-98.875c11.625 0 16.313 9.531 16.313 49.64 0 38.172-4.688 48.407-16.313 48.407-12.172 0-16.593-9.953-16.593-49.375 0-38.031 4.984-48.672 16.593-48.672zm0 0"/></symbol><symbol overflow="visible" id="d"><path d="M1.797-104.828v2.344l8.437 3.187v94.734l-7.89 2.22V0h41.078v-2.344l-7.875-2.219v-104.28l-3.047-.407zm0 0"/></symbol><symbol overflow="visible" id="e"><path d="M37.89-77.313c-21.156 0-35.124 13.829-35.124 40.938 0 25.719 12.03 38.313 28.484 38.313 9.266 0 14.938-4.282 19.36-9.126h.703v8.579l2.343.265L84.5-1.797v-2.36L76.062-6.78v-102.063l-2.906-.406-30.562 4.422v2.344l8.297 2.906v24.625c-2.344-1.25-6.907-2.36-13-2.36zm5.954 68.594c-9.688 0-14.532-8.703-14.532-30.703 0-24.469 5.266-34.016 13.422-34.016 3.875 0 6.22.829 8.157 1.797v61.266c-1.516.969-4.016 1.656-7.047 1.656zm0 0"/></symbol><symbol overflow="visible" id="f"><path d="M73.719-75.781H59.875L47.015-24.75h-.968l-11.61-46.063 6.641-2.624v-2.344H.547v2.344l7.203 3.874L28.078 0h15.203l13.282-51.313h.546L72.75 0h15.344l17.562-67.625 8.86-5.813v-2.343H92.375v2.344l10.656 5.671-11.484 44.11h-.969zm0 0"/></symbol><symbol overflow="visible" id="g"><path d="M40.938 2.078c23.374 0 38.859-15.5 38.859-40.11 0-24.484-15.766-39.546-39-39.546S2.078-62.516 2.078-38.172c0 24.625 15.766 40.25 38.86 40.25zm0-77.172c7.874 0 11.609 7.188 11.609 36.922 0 29.875-3.86 37.75-11.469 37.75-7.75 0-11.766-7.734-11.766-37.61 0-29.734 4.016-37.062 11.625-37.062zm0 0"/></symbol><symbol overflow="visible" id="h"><path d="M1.797-72.75v2.36l8.297 3.312v62.656L2.219-2.344V0H45.64v-2.344L35.406-4.422v-48.266c4.422-1.796 9.547-2.5 16.453-2.5 2.36 0 4.844.141 6.22.563v-22.828C57.25-77.86 55.733-78 54.343-78c-8.563 0-14.922 6.219-18.797 22.688h-.703v-21.579l-2.485-.28zm0 0"/></symbol><symbol overflow="visible" id="i"><path d="M10.766-5.469C10.766-9.125 8.562-11 5.578-11 2.844-11 .297-9.187.297-5.36.297-1.718 2.484.189 5.484.189c2.75 0 5.282-1.86 5.282-5.657zm-5.25-4.484c1.25 0 1.796.875 1.796 4.594 0 3.546-.546 4.5-1.765 4.5-1.297 0-1.813-.922-1.813-4.579 0-3.53.579-4.515 1.782-4.515zm0 0"/></symbol><symbol overflow="visible" id="j"><path d="M.984-6.875v4.75c0 1.406.72 2.328 2.297 2.328 1.031 0 1.86-.469 2.469-1.031h.078v.984l.344.032 3.234-.376v-.625l-.89-.453v-7.078l-.329-.031-3.28.453v.656l.905.391V-1.5a2.66 2.66 0 0 1-1.078.234c-.625 0-1-.234-1-1.015v-6.063l-.359-.031-3.281.453v.656zm0 0"/></symbol><symbol overflow="visible" id="k"><path d="M1.281-7.11v4.782c0 1.765.782 2.5 2.422 2.5.938 0 1.735-.25 2.203-.531v-.782a5.128 5.128 0 0 1-.765.047C4.25-1.094 4-1.437 4-2.28V-7.11h1.813v-1.11H4v-1.906l-2.719.438v1.468L.11-7.813v.704zm0 0"/></symbol><symbol overflow="visible" id="m"><path d="M4.438.219c2.53 0 4.218-1.672 4.218-4.344 0-2.656-1.719-4.297-4.234-4.297-2.516 0-4.203 1.64-4.203 4.281C.219-1.469 1.937.22 4.437.22zm0-7.782c.828 0 1.265.672 1.265 3.422 0 2.766-.453 3.5-1.25 3.5-.812 0-1.266-.718-1.266-3.484 0-2.75.454-3.438 1.25-3.438zm0 0"/></symbol><symbol overflow="visible" id="n"><path d="M3.86-1.031V-7.11h1.515v-1.11H3.859v-1.594c0-.906.235-1.218.766-1.218a.94.94 0 0 1 .406.078l.344 1.484h1.016v-2.234a11.785 11.785 0 0 0-2.032-.156c-1.75 0-3.25.765-3.25 2.796v.844l-.921.422v.688h.921v6.078l-.875.39V0h4.688v-.64zm0 0"/></symbol><symbol overflow="visible" id="o"><path d="M7.953-3.89v-.204c0-3.125-1.234-4.312-3.61-4.312-2.515 0-4.077 1.64-4.077 4.265C.266-1.453 1.687.22 4.484.22c1.594 0 2.735-.735 3.188-1.344v-.75c-.594.297-1.203.484-2.078.484-1.797 0-2.422-.796-2.516-2.5zM4.281-7.579c.719 0 1.078.625 1.078 2.719l-2.328.156c0-2.031.485-2.875 1.25-2.875zm0 0"/></symbol><symbol overflow="visible" id="p"><path d="M.188-11.375v.672l.921.344v9.312l-.859.39V0h4.453v-.656l-.844-.39v-10.767l-.328-.03zm0 0"/></symbol><symbol overflow="visible" id="K"><path d="M3.922.188c2.672 0 4.281-1.297 4.281-3.61 0-2.094-1.11-2.734-3-3.453l-.594-.234c-1.187-.454-1.656-.829-1.656-1.579 0-.828.531-1.343 1.547-1.343.594 0 1.031.078 1.313.187l.546 1.89h1.235l-.157-2.624c-.562-.203-1.421-.438-2.906-.438-2.828 0-3.968 1.454-3.968 3.36 0 1.734.859 2.656 2.562 3.36l.578.25c1.328.53 1.922.905 1.922 1.78 0 .922-.578 1.438-1.844 1.438-.562 0-1.062-.094-1.437-.266l-.594-2H.469l.14 2.735c.782.343 2.079.546 3.313.546zm0 0"/></symbol><symbol overflow="visible" id="L"><path d="M.234-.64V0h4.36v-.64l-.75-.344v-5.72c.312-.14.672-.234 1.125-.234C5.64-6.938 6-6.609 6-5.796v4.813l-.766.343V0h4.344v-.64l-.844-.391v-5.203c0-1.5-.64-2.188-2.062-2.188A4.28 4.28 0 0 0 3.89-7.375h-.094v-4.438l-.344-.03-3.265.468v.672l.906.36v9.312zm0 0"/></symbol><symbol overflow="visible" id="M"><path d="M2.828-4.453C1.078-4.156.234-3.391.234-2.016.234-.594 1.172.22 2.563.22c1.046 0 1.718-.375 2.187-.985h.094c.218.579.718.954 1.75.954.672 0 1.281-.172 1.562-.376v-.53l-.781-.391v-4.829c0-1.859-1.266-2.484-3.484-2.484-1.297 0-2.266.297-3.047.531v2.266h1.203l.547-1.797c.219-.062.437-.094.719-.094.968 0 1.328.47 1.328 1.594v1.125zm1.094 3.297c-.61 0-1.031-.25-1.031-1.297 0-.922.343-1.344 1.078-1.422l.672-.063v2.547c-.157.141-.407.235-.72.235zm0 0"/></symbol><symbol overflow="visible" id="N"><path d="M4.11-8.39C1.811-8.39.296-6.89.296-3.938c0 2.78 1.312 4.14 3.094 4.14 1.03 0 1.687-.422 2.171-.906h.079v.86l.25.03 3.28-.374V-.86l-.921-.438v-10.515l-.313-.032-3.312.469v.688l.89.312v2.25c-.25-.14-.75-.266-1.406-.266zm.64 7.218c-1.047 0-1.563-.844-1.563-2.984 0-2.39.563-3.313 1.454-3.313.421 0 .671.125.875.25v5.844c-.157.11-.438.203-.766.203zm0 0"/></symbol><symbol overflow="visible" id="O"><path d="M7.86-8.219H6.061L4.75-3.28h-.094L3.72-7.156l.734-.39v-.673H.063v.672l.718.39L2.844 0h2.11l1.234-4.39h.062L7.61 0h2.109l2-7.156.703-.39v-.673H9.734v.672l.735.39L9.53-3.25h-.11zm0 0"/></symbol><symbol overflow="visible" id="P"><path d="M2.422-11.734c-.813 0-1.453.625-1.453 1.421 0 .782.64 1.391 1.453 1.391.765 0 1.453-.61 1.453-1.39 0-.797-.688-1.422-1.453-1.422zM.187-7.891v.641l.922.36v5.874L.25-.64V0h4.438v-.64l-.829-.376v-7.328l-.296-.031zm0 0"/></symbol><symbol overflow="visible" id="Q"><path d="M3.797-7.156l.89-.39v-.673H.063v.672l.704.39L3.234 0H5.5l2.516-7.172.656-.375v-.672H5.89v.672l.89.39L5.25-2.39h-.063zm0 0"/></symbol><symbol overflow="visible" id="R"><path d="M4.36-5.406l-.548-.125c-.921-.25-1.203-.516-1.203-1.047 0-.61.407-.969 1.22-.969.452 0 .796.063 1.03.188l.438 1.28h.984v-2c-.625-.25-1.562-.358-2.515-.358-2.344 0-3.407 1.14-3.407 2.75 0 1.53.813 2.375 2.563 2.812l.562.125c.829.203 1.125.484 1.125 1.031 0 .625-.421 1.032-1.359 1.032-.5 0-.938-.11-1.266-.282l-.64-1.437H.359L.453-.25c.828.297 1.875.438 2.828.438 2.453 0 3.547-1.032 3.547-2.86 0-1.547-.734-2.312-2.469-2.734zm0 0"/></symbol><symbol overflow="visible" id="X"><path d="M3.11 0h2.64l1.64-6.828h.11L9.281 0h2.64l2.173-9.625.75-.375v-.813h-3.219V-10l1.063.375-1.297 6.281h-.11l-2.047-7.469H6.97L5.219-3.39h-.094L3.937-9.625 4.875-10v-.813H.125V-10l.703.375zm0 0"/></symbol><symbol overflow="visible" id="Y"><path d="M.188-7.89v.64l.906.36v5.874l-.86.375V0h4.72v-.64l-1.11-.376v-4.703c.469-.187 1.031-.265 1.781-.265.25 0 .531.015.672.062v-2.484a1.45 1.45 0 0 0-.406-.047c-.938 0-1.625.625-2.063 1.969H3.75v-1.86l-.266-.031zm0 0"/></symbol><symbol overflow="visible" id="Z"><path d="M7.938-7.125l.937-.422v-.672H5.641v.672l.843.453-2.64 2.766v-7.484l-.39-.032-3.267.469v.672l.907.344v9.312l-.86.39V0h4.422v-.672l-.812-.39v-2.72L6.188 0H9.39v-.672l-.657-.312-2.671-4.172zm0 0"/></symbol><symbol overflow="visible" id="q"><path d="M3.594 0h1.25l2.265-8.438h.079L9.546 0h1.203l2.61-10.031 1.046-.281v-.5H11.36v.5l1.11.28L10.5-2.124h-.078L8-10.813H6.875L4.609-2.25h-.062l-1.828-7.781 1.062-.281v-.5H.141v.5l.906.28zm0 0"/></symbol><symbol overflow="visible" id="r"><path d="M.266-.422V0h3.578v-.422L2.813-.64v-6.156c.578-.25 1.156-.469 2.015-.469.89 0 1.469.36 1.469 1.454v5.171L5.25-.42V0h3.563v-.422l-1.094-.25v-5.344c0-1.562-.735-2.125-2.235-2.125-.937 0-1.828.391-2.609.813h-.078v-4.484l-.219-.11-2.312.36v.406l1.109.234v10.25zm0 0"/></symbol><symbol overflow="visible" id="s"><path d="M1.484 2.234c-.328 0-.64-.046-.921-.093v.609c.375.219.78.313 1.218.313 1.203 0 1.75-.626 2.344-2.22l3.11-8.218.75-.203v-.438H5.452v.438l.953.281-2.031 5.578h-.063L2.22-7.312l1.031-.266v-.438H-.11v.438l.75.203L3.626.031l-.25.688c-.422 1.078-.953 1.515-1.89 1.515zm0 0"/></symbol><symbol overflow="visible" id="u"><path d="M2.063.172c1.843 0 2.765-.828 2.765-2.547v-7.656l1.313-.281v-.5H1.906v.5l1.328.28v7.75c0 1.204-.468 1.626-1.578 1.626-.531 0-.968-.094-1.468-.266v.703C.64 0 1.296.171 2.063.171zm0 0"/></symbol><symbol overflow="visible" id="v"><path d="M2.813-4.266C1.313-3.984.39-3.312.39-1.984.39-.641 1.312.203 2.67.203c1.142 0 1.735-.437 2.188-.875h.094c.078.531.39.828 1.11.828.5 0 .984-.125 1.25-.25v-.39L6.25-.72v-5.093c0-1.61-.766-2.329-2.656-2.329-.953 0-2.031.266-2.672.438v1.875h.656l.406-1.469c.344-.11.735-.203 1.25-.203 1.329 0 1.594.563 1.594 1.906v.953zm.515 3.61c-1.015 0-1.515-.531-1.515-1.516 0-.89.312-1.453 1.421-1.562l1.594-.172v2.672c-.328.328-.86.578-1.5.578zm0 0"/></symbol><symbol overflow="visible" id="w"><path d="M4.172.188c1.266 0 2.016-.376 2.61-.891v-.578c-.548.343-1.157.578-2.11.578-1.734 0-2.734-.985-2.734-3.422 0-2.25.89-3.422 2.64-3.422.469 0 .828.063 1.063.188l.328 1.468h.672v-1.953c-.61-.218-1.313-.297-2.094-.297-2.25 0-4.11 1.266-4.11 4.204C.438-1.422 1.704.186 4.172.186zm0 0"/></symbol><symbol overflow="visible" id="x"><path d="M2.063-11.328c-.532 0-.922.375-.922.89 0 .5.39.891.921.891.5 0 .922-.39.922-.89 0-.516-.421-.891-.921-.891zM.296-7.75v.406l1.094.219v6.469L.297-.422V0h3.656v-.422L2.828-.656V-8l-.172-.094zm0 0"/></symbol><symbol overflow="visible" id="y"><path d="M.266-.422V0h3.578v-.422L2.813-.64v-6.125c.578-.25 1.187-.5 2.015-.5.89 0 1.469.36 1.469 1.454v5.171L5.25-.42V0h3.563v-.422l-1.094-.25v-5.344c0-1.562-.735-2.125-2.235-2.125-.937 0-1.906.407-2.671.844h-.047v-.719l-.204-.078-2.296.344v.406l1.109.219v6.453zm0 0"/></symbol><symbol overflow="visible" id="z"><path d="M4.438-8.14C1.983-8.14.453-6.657.453-3.798c0 2.75 1.531 3.969 3.094 3.969 1.11 0 1.86-.375 2.484-.828h.063v.734l.172.078 2.312-.36v-.405l-1.14-.282v-10.921l-.204-.11-2.421.344v.437l1.203.204v3a5.78 5.78 0 0 0-1.579-.204zM4.343-.673C2.75-.672 1.922-1.719 1.922-4c0-2.547.984-3.5 2.453-3.5.875 0 1.281.203 1.64.438v5.906a3.22 3.22 0 0 1-1.671.484zm0 0"/></symbol><symbol overflow="visible" id="A"><path d="M7.61-.734l-1.266.25V0h3.922v-.5l-.97-.234-3.5-10.079H4.595L1.094-.733.14-.5V0h3.03v-.484L1.97-.734l.89-2.672h3.86zM4.765-9.125h.062l1.625 4.906H3.141zm0 0"/></symbol><symbol overflow="visible" id="B"><path d="M.266-7.75v.406l1.109.219v6.469l-1.11.234V0h3.829v-.422L2.812-.656v-5.625c.5-.422 1.141-.625 2.016-.625.234 0 .453.015.61.062v-1.265a1.522 1.522 0 0 0-.47-.063c-.874 0-1.687.5-2.155 1.328H2.75V-8l-.188-.094zm0 0"/></symbol><symbol overflow="visible" id="C"><path d="M7.297-4v-.078c0-2.469-.906-4.063-3.281-4.063C1.969-8.14.422-6.609.422-4.078.422-1.625 1.547.188 4.25.188 5.5.188 6.422-.22 6.938-.72v-.594c-.625.375-1.313.61-2.235.61-1.86 0-2.797-1.094-2.828-3.297zM3.969-7.531c1.25 0 1.828.875 1.828 2.843l-3.938.11c.11-1.953.813-2.953 2.11-2.953zm0 0"/></symbol><symbol overflow="visible" id="D"><path d="M3.531.14c1.11 0 1.828-.374 2.453-.812h.063v2.985l-1.328.25V3h3.828v-.438l-1.11-.218V-7.687c-.843-.297-1.89-.5-2.828-.5C2.063-8.188.453-6.72.453-3.734.453-.875 2 .14 3.531.14zm.844-7.702c.89 0 1.281.218 1.64.453v5.89a3.353 3.353 0 0 1-1.734.516c-1.515 0-2.36-.938-2.36-3.281 0-2.61.97-3.579 2.454-3.579zm0 0"/></symbol><symbol overflow="visible" id="E"><path d="M1.328-7.203v5.172c0 1.515.75 2.187 2.297 2.187.969 0 1.828-.437 2.578-.875h.063v.797l.218.078 2.25-.344v-.406L7.656-.859V-8l-.218-.078-2.297.219v.421l1.093.235v5.984c-.593.266-1.187.5-2.015.5-.875 0-1.453-.375-1.453-1.437V-8l-.235-.078-2.328.219v.421zm0 0"/></symbol><symbol overflow="visible" id="F"><path d="M1.328-7.328v5.531c0 1.438.719 1.922 2.063 1.922.718 0 1.39-.219 1.75-.422v-.5c-.266.063-.641.11-.954.11-1.125 0-1.437-.329-1.437-1.282v-5.36h2.266v-.687H2.75v-1.953l-1.422.219v1.719l-1.156.265v.438zm0 0"/></symbol><symbol overflow="visible" id="G"><path d="M8.297-4.297c0-2.89-1.5-3.844-3.031-3.844-1.079 0-1.875.391-2.5.844h-.063v-.719L2.5-8.094.187-7.75v.406l1.125.235v9.453l-1.109.219V3h3.844v-.438l-1.297-.25V-.062c.438.14.953.25 1.563.25 2.39 0 3.984-1.532 3.984-4.485zm-1.453.281c0 2.641-1 3.516-2.532 3.516C3.5-.5 3.11-.688 2.75-.938v-5.859c.36-.203 1.031-.5 1.734-.5 1.532 0 2.36.922 2.36 3.281zm0 0"/></symbol><symbol overflow="visible" id="H"><path d="M4.25.203c2.11 0 3.781-1.719 3.781-4.219 0-2.53-1.547-4.125-3.844-4.125-2.109 0-3.78 1.672-3.78 4.204 0 2.484 1.546 4.14 3.843 4.14zm-.063-7.719c1.391 0 2.25 1.125 2.25 3.594 0 2.438-.796 3.5-2.171 3.5-1.454 0-2.297-1.14-2.297-3.625 0-2.406.828-3.469 2.218-3.469zm0 0"/></symbol><symbol overflow="visible" id="I"><path d="M.297-11.563v.407l1.094.172V-.672l-1.094.25V0h3.656v-.422l-1.14-.25v-11.14l-.188-.11zm0 0"/></symbol><symbol overflow="visible" id="J"><path d="M4.125-4.563l-.86-.265c-1.171-.39-1.53-.75-1.53-1.39 0-.766.546-1.298 1.656-1.298.546 0 .984.079 1.265.204l.313 1.218h.593v-1.765c-.5-.157-1.296-.282-2.203-.282C1.47-8.14.531-7.125.531-5.828c0 1.219.688 1.86 2.016 2.281l.875.281c1.094.344 1.453.75 1.453 1.422 0 .828-.594 1.422-1.86 1.422-.624 0-1.078-.14-1.484-.328l-.5-1.36H.438L.561-.202c.75.234 1.594.406 2.485.406 2.015 0 3.031-.937 3.031-2.422 0-1.203-.578-1.922-1.953-2.344zm0 0"/></symbol><symbol overflow="visible" id="S"><path d="M2.516 0H6.89v-.5L5.516-.734v-9.407h2.468l.5 2.375h.72l-.157-3.046H.359L.188-7.767H.89l.53-2.375h2.5v9.407L2.517-.5zm0 0"/></symbol><symbol overflow="visible" id="T"><path d="M4.906-8.14c-1.11 0-1.86.39-2.468.828h-.063v-4.5l-.219-.11-2.328.36v.406l1.125.234V-.39c.75.36 1.875.579 2.813.579 2.578 0 4.171-1.5 4.171-4.485 0-2.89-1.515-3.844-3.03-3.844zM4-.454c-.86 0-1.25-.219-1.61-.453v-5.89c.36-.188 1.032-.5 1.735-.5 1.516 0 2.344.921 2.344 3.25C6.469-1.392 5.5-.454 4-.454zm0 0"/></symbol><symbol overflow="visible" id="U"><path d="M5.64-.484c-2.452 0-3.437-1.735-3.437-4.985 0-3.203 1.172-4.86 3.485-4.86.734 0 1.5.142 1.843.329l.485 2.016h.703l-.063-2.641C8-10.828 7-11 5.703-11 2.984-11 .453-9.562.453-5.328.453-1.422 2.47.188 5.547.188c1.469 0 2.422-.204 3.203-.516l.063-2.719h-.72L7.673-.875c-.453.234-1.14.39-2.031.39zm0 0"/></symbol><symbol overflow="visible" id="V"><path d="M4.938-10.813H.375v.485l1.36.281v9.281L.39-.484V0h4.25v-.484L3.312-.766V-4.78h1.766L7.688 0h2.421v-.484L9.08-.75 6.561-5.063v-.062c1.141-.313 2.125-1.125 2.125-2.781 0-1.875-1.109-2.907-3.75-2.907zM4.813-5.5h-1.5v-4.625h1.5c1.578 0 2.218.61 2.218 2.25 0 1.469-.547 2.375-2.218 2.375zm0 0"/></symbol><symbol overflow="visible" id="W"><path d="M2.344-7.344l.953-.234v-.438H.016v.438l.75.266L3.516 0h1.078l2.672-7.313L8-7.577v-.438H5.531v.438l.938.234L4.406-1.53H4.36zm0 0"/></symbol><symbol overflow="visible" id="aa"><path d="M2.844-.672v-6.656h2.078v-.688H2.844v-1.359c0-1.563.547-2 1.375-2 .234 0 .453.016.672.078l.28 1.266h.61v-1.797c-.484-.11-1.031-.14-1.61-.14-1.5 0-2.75.89-2.75 2.718v1.219l-1.093.265v.438h1.094v6.656l-1.11.25V0h3.829v-.422zm0 0"/></symbol><symbol overflow="visible" id="ab"><path d="M.5-5.125h3.703v-1H.5zm0 0"/></symbol><symbol overflow="visible" id="ac"><path d="M6.563-8.016h-.97L3.876-2.078h-.094L2.266-7.313l.968-.265v-.438H.016v.438l.703.266L2.953 0H3.97L5.75-5.844h.047L7.766 0h1.046l2.11-7.313.703-.265v-.438H9.156v.438l.969.266-1.484 5.328h-.079zm0 0"/></symbol><symbol overflow="visible" id="ad"><path d="M2.813-11.813l-.235-.109-2.312.36v.406l1.109.234v10.25l-1.11.25V0h3.672v-.438L2.813-.671zm3.89 4.547l1.125-.312v-.438h-2.89v.438l.828.344-2.61 3v.171L6.141 0h2.03v-.438l-.75-.14-3.03-4.047zm0 0"/></symbol><symbol overflow="visible" id="ae"><path d="M3.875 0h8.469v-1.203l-1.969-.547v-14.719h2.797l.906 3.969h1.844l-.219-5.531H.531L.281-12.5h1.813l.953-3.969h2.797V-1.75l-1.969.547zm0 0"/></symbol><symbol overflow="visible" id="af"><path d="M.422-.969V0h6.86v-.969l-1.376-.5v-9.75a5.373 5.373 0 0 1 2.297-.5c1.219 0 1.953.547 1.953 2.063v8.187l-1.437.5V0h6.86v-.969l-1.532-.578v-8.734c0-2.516-1.094-3.625-3.516-3.625-1.687 0-3.328.687-4.562 1.625h-.14v-7.39l-.5-.11-4.985.734v.969l1.625.547v15.984zm0 0"/></symbol><symbol overflow="visible" id="ag"><path d="M12.922-6.531v-.297c0-4.844-1.89-7.047-5.844-7.047-3.953 0-6.547 2.672-6.547 7C.531-2.5 2.75.344 7.344.344c2.5 0 4.281-1.047 5.062-2.016v-1.172c-.984.547-2.062.875-3.531.875-3.031 0-4.219-1.484-4.344-4.562zm-5.953-6.063c1.484 0 2.187 1.14 2.187 4.594l-4.687.203c.031-3.328.953-4.797 2.5-4.797zm0 0"/></symbol><symbol overflow="visible" id="ai"><path d="M7.031-13.844C3.125-13.844.578-11.375.578-6.5c0 4.625 2.266 6.828 5.14 6.828C7.5.328 8.626-.375 9.5-1.156h.125V.219l.406.062 4.938-.61v-.968l-1.625-.656v-17.719l-.469-.11-5.078.735v1l1.656.469v4.125c-.531-.219-1.36-.39-2.422-.39zm.688 12.14c-2.016 0-3.047-1.5-3.047-5.14 0-4.062 1.156-5.625 2.922-5.625.937 0 1.437.25 1.86.516v9.781c-.376.219-1 .469-1.735.469zm0 0"/></symbol><symbol overflow="visible" id="aj"><path d="M.422-.969V0h6.734v-.969L5.875-1.53v-9.688C6.5-11.53 7.078-11.75 8-11.75c1.203 0 1.828.578 1.828 2.094v8.125l-1.36.562V0h6.407v-.969l-1.297-.562v-9.688c.594-.281 1.25-.531 2.047-.531 1.203 0 1.906.578 1.906 2.094v8.125L16.22-.97V0h6.703v-.969l-1.547-.562v-8.688c0-2.531-1.219-3.687-3.531-3.687-1.766 0-3.172.703-4.422 1.687h-.094c-.547-1.203-1.547-1.687-3.11-1.687-1.796 0-3.062.687-4.296 1.656h-.125v-1.469l-.5-.11-4.953.75v.954l1.625.531V-1.53zm0 0"/></symbol><symbol overflow="visible" id="ak"><path d="M7.297.375c4.031 0 6.797-2.828 6.797-7.203 0-4.344-2.75-7.078-6.844-7.078-3.969 0-6.781 2.75-6.781 7.11 0 4.343 2.75 7.171 6.828 7.171zM7.28-12.578c1.64 0 2.594 1.36 2.594 5.797 0 4.437-.922 5.812-2.547 5.812-1.672 0-2.625-1.406-2.625-5.86 0-4.421.953-5.75 2.578-5.75zm0 0"/></symbol><symbol overflow="visible" id="al"><path d="M6.422 5.453c4.86 0 7.297-1.984 7.297-4.86 0-2.421-1.516-3.25-4.39-3.25H4.921c-.766 0-1.125-.374-1.125-.937 0-.437.281-.75.656-1.062.625.125 1.219.25 2.047.25 3.328 0 5.703-1.594 5.703-4.64 0-1.25-.531-2.282-1.5-3.032v-.14l2.469.624h.281v-2.328h-.203l-3.594.594H9.47c-.766-.328-1.766-.578-2.969-.578-3.297 0-5.656 1.703-5.656 4.781a4.504 4.504 0 0 0 2.5 4.047v.11c-1.469.593-2.297 1.546-2.297 2.796C1.047-1 1.844 0 2.907.328v.125C1.171.906.077 1.672.077 2.72c0 1.812 2.125 2.734 6.344 2.734zM8.5-9.172c0 2.5-.719 3.453-1.969 3.453s-1.953-.875-1.953-3.453c0-2.656.672-3.578 1.953-3.578 1.25 0 1.969.906 1.969 3.578zM6.453 4.218c-2.578 0-3.36-.765-3.36-2 0-.546.36-1.062 1.126-1.5H8.78c1.375 0 1.844.454 1.844 1.25 0 1.36-1.297 2.25-4.172 2.25zm0 0"/></symbol><symbol overflow="visible" id="am"><path d="M.344-13.078v.953l1.625.531V-1.53L.422-.97V0h7.406v-.969L5.906-1.53v-8.266c.797-.453 1.766-.625 3.063-.625.437 0 .86.016 1.11.094v-3.516c-.157-.078-.423-.11-.735-.11-1.516 0-2.719.985-3.469 2.985H5.75v-2.75l-.406-.11zm0 0"/></symbol><symbol overflow="visible" id="an"><path d="M4.719-7.328c-2.797.5-4.25 1.703-4.25 4C.469-1.031 2.03.375 4.329.375c1.796 0 2.874-.672 3.64-1.594h.156C8.422-.28 9.156.297 10.719.297c1.031 0 1.984-.266 2.453-.547v-.828l-1.453-.578v-8.188c0-2.953-1.844-4.062-5.39-4.062-1.985 0-3.657.484-4.907.86v3.577h1.75l.86-2.86c.421-.093.874-.202 1.468-.202 1.781 0 2.328.828 2.328 2.828v1.797zm1.5 5.656c-1.188 0-1.938-.547-1.938-2.281 0-1.516.563-2.266 1.969-2.422l1.578-.172v4.328c-.36.313-.906.547-1.61.547zm0 0"/></symbol><symbol overflow="visible" id="ao"><path d="M14.656-7.219c0-4.937-2.203-6.687-4.812-6.687a5.47 5.47 0 0 0-3.938 1.625H5.75v-1.438l-.469-.11-4.984.75v.923l1.578.625V3.703L.328 4.25v1h7.266v-1l-1.797-.547V-.125c.5.219 1.375.453 2.422.453 3.578 0 6.437-2.328 6.437-7.547zm-4.078.5c0 4.172-1.156 5.625-3.031 5.625-.844 0-1.344-.234-1.75-.531v-9.594a3.645 3.645 0 0 1 1.875-.531c1.86 0 2.906 1.219 2.906 5.031zm0 0"/></symbol><symbol overflow="visible" id="ap"><path d="M3.844-19.344c-1.219 0-2.14.922-2.14 2.094 0 1.172.921 2.078 2.14 2.078C5-15.172 6-16.078 6-17.25c0-1.172-1-2.094-2.156-2.094zM.375-13.078v.953L2-11.594V-1.53L.453-.97V0H7.47v-.969L5.922-1.53V-13.72l-.422-.11zm0 0"/></symbol><symbol overflow="visible" id="aq"><path d="M7.094.328C9.53.328 11-.547 11.922-1.625v-1.156c-.797.484-1.75.812-3.203.812C6-1.969 4.53-3.547 4.53-7.219c0-3.625 1.219-5.375 3.438-5.375.578 0 1 .047 1.328.188L10.03-9.5h1.766v-3.906c-.89-.297-2.469-.5-4.094-.5-4.25 0-7.156 2.578-7.156 7.11C.547-2.547 2.75.327 7.094.327zm0 0"/></symbol><symbol overflow="visible" id="ar"><path d="M2.156-11.969v8.344C2.156-.828 3.422.25 6.031.25 7.47.25 8.72-.125 9.453-.578v-1.14c-.328.046-.875.093-1.36.093-1.624 0-2.046-.578-2.046-2.031v-8.313h3.25v-1.625h-3.25v-3.203l-3.89.625v2.578L.202-13v1.031zm0 0"/></symbol><symbol overflow="visible" id="as"><path d="M9.328-13.906c-1.86 0-3.172.86-3.984 1.625h-.14v-7.39l-.485-.11-4.969.734v.969l1.625.531v16.75C2.625-.094 4.75.328 6.844.328c4.406 0 7.312-2.36 7.312-7.547 0-4.937-2.234-6.687-4.828-6.687zM7.094-.97c-.89 0-1.375-.234-1.797-.5v-9.75c.453-.25 1.125-.531 1.875-.531 1.86 0 2.875 1.25 2.875 4.922 0 4.375-1.125 5.86-2.953 5.86zm0 0"/></symbol><symbol overflow="visible" id="at"><path d="M5.922-1.547v-10.422h2.797v-1.625H5.922v-2.562c0-1.813.547-2.39 1.578-2.39.297 0 .547.015.828.124l.516 2.375h1.5v-3.531c-1.172-.203-2.047-.25-3.172-.25C4.375-19.828 2-18.5 2-15.203v1.61l-1.594.624v1H2v10.422L.453-.969V0h7.344v-.969zm0 0"/></symbol><symbol overflow="visible" id="au"><path d="M.422-.969V0h6.86v-.969L5.905-1.5v-9.703c.625-.266 1.375-.516 2.297-.516 1.219 0 1.953.547 1.953 2.063V-1.5L8.72-.969V0h6.86v-.969l-1.532-.578v-8.734c0-2.516-1.094-3.625-3.516-3.625-1.687 0-3.375.687-4.578 1.656h-.125v-1.469l-.5-.11-4.984.75v.923l1.625.562v10.047zm0 0"/></symbol><symbol overflow="visible" id="av"><path d="M.375-19.047v.969l1.625.5v16l-1.547.61V0H7.47v-.969l-1.563-.578v-18.125l-.484-.11zm0 0"/></symbol><symbol overflow="visible" id="aw"><path d="M3.125.14c2.156 0 3.438-1.03 3.438-2.874 0-1.688-.891-2.188-2.407-2.766l-.468-.188c-1.11-.39-1.5-.812-1.5-1.578 0-.796.468-1.343 1.437-1.343.188 0 .36.046.516.093l1.734 2.282h.203l-.125-2.22c-.547-.187-1.219-.358-2.328-.358-2.25 0-3.188 1.171-3.188 2.687 0 1.39.704 2.125 2.063 2.688l.469.203c1.219.437 1.719.875 1.719 1.765 0 .875-.532 1.39-1.594 1.39-.188 0-.406-.03-.625-.108L.594-2.658H.39L.5-.28c.61.25 1.64.422 2.625.422zm0 0"/></symbol><symbol overflow="visible" id="ax"><path d="M4.313-8.656H.218v.203l.812.187V-.39L.22-.203V0H4.53v-.203l-.968-.172v-2.969c.296.063.578.11.968.11 1.938 0 3.25-.86 3.25-2.766 0-1.781-1.031-2.656-3.468-2.656zm-.204 5.11c-.203 0-.359 0-.546-.048v-4.828h.5c.812 0 1.203.578 1.203 2.453 0 1.813-.375 2.422-1.157 2.422zm0 0"/></symbol><symbol overflow="visible" id="ay"><path d="M.219 0h7.11l.077-2.922h-.203L5.484-.234H3.547v-4.079h.828l1.078 1.594h.203v-3.375h-.203L4.375-4.547h-.828v-3.875h1.969l1.53 2.547h.204l-.078-2.781H.234v.203l.782.172v7.906l-.797.172zm0 0"/></symbol><symbol overflow="visible" id="az"><path d="M4.875-.063c-1.344 0-1.953-1.234-1.953-4.39 0-2.969.672-4.14 1.922-4.14.156 0 .297.03.453.093l1.766 2.625h.203L7.187-8.5c-.515-.188-1.375-.297-2.421-.297C2.469-8.797.234-7.64.234-4.28.234-1.094 2.125.14 4.704.14c1.187 0 2.062-.188 2.562-.454l.093-2.656h-.203L5.296-.172c-.124.094-.25.11-.421.11zm0 0"/></symbol><symbol overflow="visible" id="aA"><path d="M.219 0H4.39v-.203l-.829-.172v-7.906l.829-.172v-.203H.219v.203l.812.172v7.906L.22-.203zm0 0"/></symbol><symbol overflow="visible" id="aB"><path d="M2.453-.203L1.281-.781l.672-2.063h2.563l.78 2.313-.796.328V0h4.11v-.203l-.735-.5-2.766-7.953H3.641L1.03-.796.11-.204V0h2.344zm.735-6.375h.062l1.172 3.453H2.047zm0 0"/></symbol><symbol overflow="visible" id="aC"><path d="M.219 0h6.718l.157-3.313H6.89L4.92-.233H3.548v-8.047l.875-.172v-.203H.219v.203l.797.187V-.39l-.797.188zm0 0"/></symbol><symbol overflow="visible" id="aE"><path d="M4.578-8.656H.234v.203l.829.203v7.86l-.829.187V0h4.079v-.203l-.72-.156v-3.532h.376L5.89 0h2.828v-.203l-.422-.234-2-3.735v-.062c.922-.313 1.547-1.047 1.547-2.032 0-1.484-.907-2.39-3.266-2.39zm-.61 4.5h-.374v-4.266H4c.922 0 1.344.516 1.344 2.14 0 1.563-.422 2.126-1.375 2.126zm0 0"/></symbol><symbol overflow="visible" id="aF"><path d="M8.61-4.375c0-2.922-1.75-4.422-4.141-4.422C2.28-8.797.234-7.359.234-4.28.234-1.375 2 .14 4.406.14 6.594.14 8.61-1.33 8.61-4.375zM4.421-8.578c1.016 0 1.422.828 1.422 4.312 0 3.313-.407 4.188-1.422 4.188-1.047 0-1.438-.86-1.438-4.281 0-3.297.438-4.22 1.438-4.22zm0 0"/></symbol><symbol overflow="visible" id="aG"><path d="M1.797 0h4.312v-.203l-.89-.188v-8.03h.703l1.64 2.765h.204l-.094-3H.234l-.109 3h.203L2-8.422h.688V-.39l-.891.188zm0 0"/></symbol><symbol overflow="visible" id="aH"><path d="M.61 0h2.25v-.578h-.735s.031-.328.031-.563v-3.046h-.469l-1.14.53v.5l.281-.046c.313-.047.5-.14.5-.14v2.202c0 .235.031.563.031.563H.61zm0 0"/></symbol><symbol overflow="visible" id="aI"><path d="M1.39.063c.985 0 1.485-.579 1.485-1.407 0-.828-.469-1.25-1.156-1.25a.829.829 0 0 0-.5.14h-.063s.063-.233.078-.468l.032-.265c0-.157-.032-.329-.032-.329h1.438v-.64h-2L.547-1.97h.125c.172-.047.312-.078.562-.078.485 0 .75.219.75.735 0 .515-.296.718-.765.718-.313 0-.594-.062-.828-.203v.594c.234.156.53.266 1 .266zm0 0"/></symbol><symbol overflow="visible" id="aJ"><path d="M1.5.063c.906 0 1.406-.485 1.406-1.235 0-.64-.344-.906-.984-.984v-.063c.594-.14.844-.5.844-1 0-.672-.47-1.015-1.235-1.015-.406 0-.734.093-.984.203v.578c.203-.063.437-.11.719-.11.437 0 .703.094.703.516 0 .36-.235.578-.672.578H.953v.64h.422c.469 0 .672.173.672.595 0 .453-.266.64-.781.64C.937-.594.64-.672.39-.75v.594c.25.11.625.218 1.109.218zm0 0"/></symbol><symbol overflow="visible" id="aK"><path d="M1.813 0h.828v-.484C2.64-.688 2.594-1 2.594-1h.515v-.625h-.515s.047-.313.047-.516v-2.015h-.954L.22-1.703V-1h1.625s-.032.313-.032.516zm-1-1.61v-.077s.25-.22.39-.485l.234-.406c.204-.375.407-.906.407-.906h.062s-.078.515-.078.859v.5c0 .234.031.516.031.516zm0 0"/></symbol><symbol overflow="visible" id="aL"><path d="M1.64.078c.813 0 1.423-.562 1.423-1.875v-.531c0-1.297-.563-1.906-1.407-1.906-.797 0-1.422.609-1.422 1.937v.531C.234-.516.781.078 1.641.078zm.016-.64c-.422 0-.578-.36-.578-1.25v-.532c0-.89.156-1.25.578-1.25.407 0 .578.36.578 1.281v.532c0 .922-.171 1.218-.578 1.218zm0 0"/></symbol><symbol overflow="visible" id="aM"><path d="M.36 0h2.484v-.64H1.219v-.032s.312-.203.578-.469l.078-.078c.578-.562.906-1.125.906-1.781 0-.781-.469-1.234-1.281-1.234-.484 0-.828.125-1.063.25v.593c.235-.093.5-.156.797-.156.47 0 .688.188.688.656 0 .532-.234.891-.734 1.438l-.829.875zm0 0"/></symbol><symbol overflow="visible" id="aN"><path d="M.031 0h1.89v-.438l-.655-.156.375-1.14h1.953l.36 1.14-.642.156V0H5.72v-.438l-.516-.156-1.766-5.265H2.36L.531-.594l-.5.156zm2.125-3.344C2.36-3.954 2.641-5 2.641-5h.046s.204 1.047.407 1.656l.328 1.078H1.797zm0 0"/></symbol><symbol overflow="visible" id="aP"><path d="M1.672 0h.86l.609-1.938c.187-.578.343-1.468.343-1.468h.032s.156.89.312 1.469L4.391 0h.843l1.172-3.89.375-.11v-.406H5.25V-4l.484.11-.39 1.39c-.157.563-.36 1.625-.36 1.625h-.03s-.188-1.063-.36-1.625l-.578-1.906h-.782L2.672-2.5c-.172.563-.36 1.625-.36 1.625h-.03S2.108-1.938 1.952-2.5l-.406-1.39.516-.11v-.406H.093V-4l.391.11zm0 0"/></symbol><symbol overflow="visible" id="aQ"><path d="M2.438.094c.75 0 1.234-.219 1.515-.406v-.454c-.312.094-.656.22-1.265.22-.813 0-1.329-.454-1.36-1.61h2.844c0-1.547-.563-2.328-1.86-2.328-1.187 0-2.078.843-2.078 2.25C.234-.828.922.094 2.438.094zm-1.11-2.735c.047-.921.39-1.296.938-1.296.515 0 .796.328.796 1.296zm0 0"/></symbol><symbol overflow="visible" id="aR"><path d="M3.422 0h1.25v-.375l-.39-.14L2.921-2.5l1.031-1.375L4.516-4v-.406H2.703V-4l.563.11-1 1.421-.454.063v-4.031l-.109-.047-1.531.187v.422l.594.125v5.234l-.579.141V0H2.36v-.375L1.813-.5V-2l.328.078zm0 0"/></symbol><symbol overflow="visible" id="aS"><path d="M.156 0h2.188v-.375l-.563-.14v-3.907l-.11-.062-1.562.203v.422l.625.14v3.203l-.578.141zm1.047-5.125c.344 0 .61-.25.61-.594 0-.328-.266-.578-.61-.578a.58.58 0 0 0-.594.578c0 .344.266.594.594.594zm0 0"/></symbol><symbol overflow="visible" id="aT"><path d="M.188 0h2.14v-.375L1.813-.5v-3.063c.265-.078.53-.156.828-.156.5 0 .75.172.75.703V-.5l-.516.125V0h2.14v-.375l-.562-.14v-2.829c0-.797-.437-1.14-1.187-1.14-.547 0-1.032.25-1.454.515h-.046v-.453l-.11-.062-1.484.203v.422l.594.14v3.203l-.579.141zm0 0"/></symbol><symbol overflow="visible" id="aU"><path d="M1.938.078c.406 0 .765-.125 1.015-.266v-.437c-.14.031-.312.063-.515.063-.516 0-.672-.172-.672-.672v-2.594h1.14v-.578h-1.14v-1.032H.719v1l-.61.204v.406h.61v2.781c0 .86.422 1.125 1.219 1.125zm0 0"/></symbol><symbol overflow="visible" id="aV"><path d="M.188 0h2.14v-.375L1.813-.5v-3.063c.265-.078.53-.156.828-.156.5 0 .75.156.75.656V-.5l-.516.125V0h2.14v-.375l-.562-.14v-2.829c0-.844-.437-1.14-1.187-1.14-.547 0-1.016.25-1.407.5h-.046v-2.454l-.11-.046-1.531.187v.422l.594.125v5.234l-.579.141zm0 0"/></symbol><symbol overflow="visible" id="aW"><path d="M.14 0h2.204v-.375l-.578-.14v-5.923l-.094-.046-1.578.187v.422l.625.125v5.234L.14-.375zm0 0"/></symbol><symbol overflow="visible" id="aX"><path d="M2.984-5.313h.625v-1.062a5.688 5.688 0 0 0-1.156-.11c-.86 0-1.687.407-1.687 1.47v.577l-.547.204v.406h.547v3.312l-.579.141V0h2.344v-.375l-.719-.14v-3.313h1v-.578h-1v-.532c0-.671.235-1.03.766-1.03.11 0 .203.015.281.015zm0 0"/></symbol><symbol overflow="visible" id="aY"><path d="M2.422.11c1.172 0 2.14-.891 2.14-2.313 0-1.422-.828-2.281-2.171-2.281-1.188 0-2.125.89-2.125 2.312C.266-.782 1.094.11 2.422.11zm0-.563c-.547 0-1.063-.422-1.063-1.781 0-1.329.485-1.704 1.032-1.704.546 0 1.046.422 1.046 1.782 0 1.312-.468 1.703-1.015 1.703zm0 0"/></symbol><symbol overflow="visible" id="aZ"><path d="M.172 0h2.297v-.375l-.672-.14v-2.829c.266-.156.578-.203.984-.203.11 0 .25.016.36.031v-.937a.946.946 0 0 0-.235-.031c-.484 0-.86.359-1.11.703H1.75v-.64l-.11-.063-1.484.203v.422l.594.14v3.203l-.578.141zm0 0"/></symbol><symbol overflow="visible" id="ba"><path d="M2.078.094c.563 0 .985-.25 1.219-.547h.047V.03l.094.047 1.437-.187V-.5l-.578-.14v-5.798l-.11-.046-1.578.187v.422l.641.125v1.375a2.569 2.569 0 0 0-.766-.11c-1.296 0-2.187.704-2.187 2.391C.297-.39 1.266.094 2.078.094zm.375-.688c-.687 0-1.078-.437-1.078-1.61 0-1.358.469-1.733 1.125-1.733.422 0 .594.124.75.234v2.86a1.42 1.42 0 0 1-.797.25zm0 0"/></symbol><symbol overflow="visible" id="bb"><path d="M.703 1.016h.625v-7.204H.703zm0 0"/></symbol><symbol overflow="visible" id="bc"><path d="M2.89.11c.579 0 1.329-.141 1.797-.313l.344-1.922.594-.156.078-.438h-2.36l-.077.438.656.156-.25 1.469a2.16 2.16 0 0 1-.766.156c-1.031 0-1.453-.578-1.453-1.578 0-1.953.844-3.266 2.172-3.266.438 0 .703.047.922.188l.234.937h.578l.094-1.468c-.344-.141-.875-.266-1.781-.266-1.656 0-3.36 1.344-3.36 3.672 0 1.437.782 2.39 2.579 2.39zm0 0"/></symbol><symbol overflow="visible" id="bd"><path d="M2.547-6.438l-.094-.046-1.547.187-.078.422.563.125L.344-.781C.313-.671.313-.578.313-.5c0 .406.234.578.562.578.453 0 .938-.187 1.219-.406l.11-.469s-.438.156-.86.219zm0 0"/></symbol><symbol overflow="visible" id="be"><path d="M1.906.094c1.5 0 2.407-1.328 2.407-2.781 0-1.016-.625-1.797-1.75-1.797C1.109-4.484.14-3.156.14-1.704.14-.671.766.095 1.906.095zm.063-.547c-.532 0-.766-.328-.766-1.094 0-1.406.547-2.39 1.297-2.39.5 0 .734.359.734 1.093 0 1.39-.468 2.39-1.265 2.39zm0 0"/></symbol><symbol overflow="visible" id="bf"><path d="M1.766.094c1.703 0 2.671-1.5 2.671-3.078 0-1.094-.484-1.516-1.14-1.516-.578 0-1.047.344-1.485.828h-.03l.546-2.765-.11-.047-1.577.187-.079.422.594.125L.141-.578c.25.375.765.672 1.625.672zm.125-.531c-.391 0-.579-.188-.641-.36l.453-2.375c.313-.297.672-.562 1.094-.562.344 0 .547.171.547.765 0 1.172-.485 2.531-1.453 2.531zm0 0"/></symbol><symbol overflow="visible" id="bg"><path d="M4.531-4.36l-.093-.046h-.813l-.11.297H3.47c-.188-.172-.39-.282-.797-.282-1.25 0-2.563 1.47-2.563 3.266C.11-.422.5.094 1.188.094c.609 0 1.046-.344 1.53-.89h.016c0 .077-.015.124-.015.218 0 .437.219.656.625.656.36 0 .797-.172 1.062-.39l.125-.47s-.39.141-.797.204zM1.641-.624c-.36 0-.47-.203-.47-.672 0-1.281.782-2.531 1.516-2.531.329 0 .47.156.61.36l-.422 2.03c-.469.485-.875.813-1.234.813zm0 0"/></symbol><symbol overflow="visible" id="bi"><path d="M1.656.094c.75 0 1.313-.313 1.625-.578L3.391-1c-.454.25-.875.375-1.297.375-.594 0-.906-.219-.906-.969 0-.093.015-.203.015-.281C2.813-2 3.97-2.375 3.97-3.531c0-.578-.485-.969-1.297-.969-1.5 0-2.563 1.39-2.563 2.969C.11-.484.703.094 1.656.094zm.922-4.047c.25 0 .375.14.375.453 0 .781-.703 1.063-1.672 1.14.188-.937.657-1.593 1.297-1.593zm0 0"/></symbol><symbol overflow="visible" id="bj"><path d="M4.938-6.438l-.11-.046-1.61.187-.077.422.625.125L3.5-4.312c-.188-.094-.344-.188-.781-.188C1.375-4.5.14-2.969.14-1.234.14-.391.656.094 1.375.094c.64 0 1.14-.39 1.453-.766h.047c-.016.485.203.75.656.75.375 0 .766-.172 1.031-.39l.125-.47s-.39.141-.796.204zM1.813-.609c-.391 0-.61-.25-.61-.766 0-1.406.75-2.563 1.547-2.563.328 0 .484.157.625.329l-.422 2.375c-.36.375-.703.625-1.14.625zm0 0"/></symbol><symbol overflow="visible" id="bk"><path d="M2.11-3.64c.015-.141.03-.25.03-.344 0-.391-.234-.516-.53-.516-.391 0-.985.25-1.298.547l-.093.469s.437-.141.86-.204L.405-.78C.375-.671.375-.578.375-.5c0 .406.25.578.578.578.422 0 .89-.172 1.172-.39l.11-.47s-.407.141-.829.204zm-.266-1.485c.328 0 .593-.25.593-.594a.58.58 0 0 0-.593-.578c-.344 0-.61.25-.61.578 0 .344.266.594.61.594zm0 0"/></symbol><symbol overflow="visible" id="bl"><path d="M2.094-3.828H3l.125-.578h-.922l.219-1.032H1.39l-.204 1.016-.671.203-.079.39h.625L.438-.89a.962.962 0 0 0-.046.282c0 .484.312.687.734.687.578 0 1-.234 1.281-.453l.11-.5S2-.641 1.39-.594zm0 0"/></symbol><symbol overflow="visible" id="bm"><path d="M4.516-3.234c.03-.157.046-.313.046-.438 0-.562-.328-.828-.828-.828-.703 0-1.156.422-1.656.938h-.047s.063-.344.063-.422c0-.391-.219-.516-.516-.516-.406 0-.937.25-1.25.531l-.11.485s.423-.141.845-.204L.265 0h1.046l.625-2.953c.344-.36.766-.75 1.235-.75.375 0 .312.39.25.672l-.469 2.25c-.031.11-.031.203-.031.297 0 .39.234.562.562.562.438 0 .875-.172 1.141-.375L4.75-.78s-.39.14-.797.203zm0 0"/></symbol><symbol overflow="visible" id="bn"><path d="M.281 0H4.11l.125-1.531h-.437l-.328.672H1.375v-.047l.906-.703c.969-.75 1.813-1.516 1.813-2.454 0-.984-.703-1.593-2.032-1.593-.5 0-1.187.187-1.578.343v1.266h.688L1.375-5c.11-.016.203-.047.422-.047.734 0 1.047.344 1.047.984 0 .891-.516 1.5-1.219 2.141L.281-.64zm0 0"/></symbol><symbol overflow="visible" id="bo"><path d="M.969 0H2.25l1.875-4.813v-.734H.344L.266-3.969H.75l.219-.672h2.515v.047zm0 0"/></symbol><symbol overflow="visible" id="bq"><path d="M1.25.078c1.078 0 1.625-.547 1.625-1.531v-3.5l.594-.125v-.469H1.047v.469l.625.125v3.422c0 .64-.297.86-.75.86-.344 0-.516-.048-.735-.11v.625c.22.11.5.234 1.063.234zm0 0"/></symbol><symbol overflow="visible" id="br"><path d="M.125 0h1.813v-.469l-.61-.14.344-1.079h1.781l.328 1.079-.594.14V0h2.36v-.469l-.469-.14-1.656-4.938H2.297L.578-.609l-.453.14zm2.016-3.188c.187-.562.437-1.515.437-1.515h.047s.188.953.36 1.516l.296.968H1.844zm0 0"/></symbol><symbol overflow="visible" id="bs"><path d="M.281 0H2.25v-.469l-.61-.156V-4.75h.032s.344.922.719 1.531L4.328 0h1v-4.938l.547-.14v-.469H4v.469l.594.156v3.453h-.047S4.219-2.359 3.828-3L2.281-5.547h-2v.469l.625.125v4.328l-.625.156zm0 0"/></symbol><symbol overflow="visible" id="bt"><path d="M3 .094c1.438 0 2.078-.766 2.078-1.907v-3.14l.547-.125v-.469H3.781v.469l.61.125v3.094c0 .89-.407 1.28-1.188 1.28-.734 0-1.172-.343-1.172-1.28v-3.094l.594-.125v-.469H.235v.469l.578.125v3.219C.813-.625 1.515.094 3 .094zm0 0"/></symbol><symbol overflow="visible" id="bu"><path d="M.297 0h2.36v-.469l-.532-.14v-1.782h.578L3.984 0h1.422v-.469l-.422-.11-1.187-2.046v-.031c.61-.203 1.14-.547 1.14-1.328 0-.985-.671-1.563-2.062-1.563H.312v.469l.61.14v4.329l-.625.14zm1.812-2.938v-2h.641c.64 0 .938.282.938.985 0 .625-.25 1.015-.907 1.015zm0 0"/></symbol><symbol overflow="visible" id="bv"><path d="M1.469 0h2.468v-.469l-.609-.14v-1.688l1.438-2.656.421-.125v-.469H3.516v.469l.53.125L2.97-2.86h-.031L1.812-4.953l.516-.125v-.469H.141v.469l.406.125 1.562 2.672V-.61l-.64.14zm0 0"/></symbol><symbol overflow="visible" id="bw"><path d="M2.797.11c1.312 0 2.437-.891 2.437-2.907 0-1.969-1.078-2.86-2.406-2.86-1.312 0-2.453.891-2.453 2.907C.375-.781 1.438.11 2.797.11zm.015-.61C2-.5 1.625-1.219 1.625-2.828c0-1.531.422-2.219 1.188-2.219.812 0 1.171.672 1.171 2.281C3.984-1.203 3.578-.5 2.813-.5zm0 0"/></symbol><symbol overflow="visible" id="bx"><path d="M.438-5.344v1.157h.687l.188-.829c.078-.03.25-.046.437-.046.688 0 1.031.328 1.031.921 0 .657-.515.954-1.203.954h-.375v.609h.453c.719 0 1.14.297 1.14.953 0 .734-.452 1.016-1.202 1.016-.5 0-1.032-.11-1.375-.22v.548c.344.203.953.39 1.703.39 1.312 0 2.125-.656 2.125-1.64 0-.86-.656-1.282-1.516-1.36v-.078c.813-.14 1.36-.594 1.36-1.312 0-.86-.72-1.375-1.844-1.375-.64 0-1.25.172-1.61.312zm0 0"/></symbol><symbol overflow="visible" id="bA"><path d="M2.266 0h1.078L5-4.953l.438-.125v-.469H3.655v.469l.594.125-.625 2.031c-.234.766-.563 2.11-.563 2.11h-.03s-.298-1.344-.532-2.11l-.64-2.031.609-.125v-.469H.156v.469l.438.125zm0 0"/></symbol><symbol overflow="visible" id="bB"><path d="M2.938.094c1.312 0 2.609-.89 2.609-2.906 0-1.891-1.125-2.829-2.563-2.829-1.296 0-2.609.875-2.609 2.891C.375-.875 1.515.094 2.938.094zm.03-.64c-.937 0-1.327-.72-1.327-2.313 0-1.407.453-2.157 1.312-2.157.875 0 1.344.657 1.344 2.313 0 1.422-.469 2.156-1.328 2.156zm0 0"/></symbol><symbol overflow="visible" id="bC"><path d="M.297 0H4.53l.11-1.906h-.625l-.36 1.312H2.11v-4.36l.672-.124v-.469H.297v.469l.61.125V-.61l-.61.14zm0 0"/></symbol><symbol overflow="visible" id="bz"><path d="M.64.734h.672v-6.828H.641zm0 0"/></symbol><symbol overflow="visible" id="bD"><path d="M1.219.094a.634.634 0 0 0 0-1.266.637.637 0 0 0-.656.64c0 .345.28.626.656.626zm0 0"/></symbol><symbol overflow="visible" id="bE"><path d="M.516-5.375v1.219h.609l.203-.969c.11-.016.234-.031.36-.031.78 0 1.125.39 1.125 1.093 0 .891-.438 1.422-1.188 2.157L.281-.578V0h3.703l.11-1.516h-.438l-.328.704H1.297v-.032l.86-.703c1.077-.89 1.78-1.656 1.78-2.516 0-1.078-.687-1.656-1.984-1.656-.453 0-1.031.14-1.437.344zm0 0"/></symbol><symbol overflow="visible" id="bF"><path d="M2.656-.484c-.828 0-1.172-.735-1.172-2.375 0-1.563.36-2.282 1.188-2.282s1.156.72 1.156 2.344c0 1.61-.36 2.313-1.172 2.313zm0 .578c1.266 0 2.297-.89 2.297-2.922 0-2.016-1.016-2.89-2.281-2.89-1.266 0-2.328.89-2.328 2.937 0 2 .984 2.875 2.312 2.875zm0 0"/></symbol><symbol overflow="visible" id="bG"><path d="M3.219-3.078c.531-.235 1.047-.61 1.047-1.266 0-.86-.688-1.375-1.86-1.375-1.187 0-1.89.657-1.89 1.5 0 .625.312 1.094 1 1.407v.015c-.625.25-1.22.703-1.22 1.39 0 .954.735 1.5 2.11 1.5S4.5-.561 4.5-1.546c0-.75-.453-1.187-1.281-1.516zm-.86 2.594c-.75 0-1.109-.36-1.109-.954 0-.515.297-.906.734-1.14.97.344 1.5.594 1.5 1.187 0 .547-.375.907-1.125.907zm.36-2.797c-.813-.266-1.203-.531-1.203-1.078 0-.485.375-.797.921-.797.516 0 .891.25.891.875 0 .484-.265.812-.61 1zm0 0"/></symbol><symbol overflow="visible" id="bH"><path d="M.234 0H2.22v-.422l-.656-.156v-4.297h.03s.376.953.735 1.531L4.344 0h.86v-5.047l.577-.156v-.422H3.875v.438l.656.156v3.593h-.047s-.39-.953-.75-1.546L2.125-5.625H.235v.422l.656.14v4.485l-.657.156zm0 0"/></symbol><symbol overflow="visible" id="bI"><path d="M2.328.11c1.125 0 2.047-.86 2.047-2.235 0-1.36-.797-2.172-2.078-2.172-1.14 0-2.047.844-2.047 2.219C.25-.75 1.047.109 2.328.109zm0-.547c-.531 0-1.015-.391-1.015-1.704 0-1.28.453-1.64.984-1.64.531 0 1.015.406 1.015 1.719 0 1.265-.468 1.624-.984 1.624zm0 0"/></symbol><symbol overflow="visible" id="bJ"><path d="M2 0h2.438v-.422l-.672-.14v-1.063h.78v-.578h-.78v-3.422h-.907L.234-2.141v.516h2.47v1.063L2-.422zM.937-2.203v-.047l1.704-2.281h.062v2.328zm0 0"/></symbol><symbol overflow="visible" id="bK"><path d="M.5-3.078v.547h.516v.64c0 .72-.235 1.047-.688 1.313V0h3.797l.094-.844H1.28v-.015c.328-.282.625-.641.672-1.282l.031-.39h1.5v-.547H2.016l.062-.672c.078-1.14.453-1.406 1.14-1.406.095 0 .188.015.188.015l.172.735h.61v-1.157a4.329 4.329 0 0 0-1.125-.156c-1.157 0-2.047.578-2.047 1.875v.766zm0 0"/></symbol><symbol overflow="visible" id="bL"><path d="M2.313-5.719C.968-5.719.28-4.859.28-3.812c0 1.046.672 1.64 1.688 1.64.562 0 1.031-.187 1.343-.39-.093 1.578-.78 2-1.734 2-.39 0-.828-.063-1.062-.157v.516c.265.172.703.297 1.28.297 1.485 0 2.657-.875 2.657-3.14 0-1.657-.781-2.673-2.14-2.673zm0 .578c.78 0 1.015.704 1.015 1.907v.187a1.833 1.833 0 0 1-.984.266c-.578 0-.938-.281-.938-1.11 0-.828.282-1.25.907-1.25zm0 0"/></symbol><symbol overflow="visible" id="bM"><path d="M1.766.078c1.39 0 2.156-.734 2.156-1.844 0-1.093-.735-1.687-1.938-1.687-.28 0-.578.031-.78.062l.109-1.406h2.359l.078-.828H.766L.562-2.719c.25-.062.579-.11.891-.11.86 0 1.328.313 1.328 1.11 0 .828-.515 1.157-1.297 1.157-.468 0-.828-.094-1.203-.22v.485c.36.203.813.375 1.485.375zm0 0"/></symbol><symbol overflow="visible" id="bN"><path d="M.328-3.11H.86v.704H.33v.453h.577C1.125-.5 1.984.094 3.22.094c.75 0 1.219-.235 1.5-.438v-.484c-.25.094-.735.265-1.266.265-.875 0-1.328-.359-1.484-1.39h1.547v-.453H1.922v-.703h1.594v-.454H1.937c.125-1.078.547-1.578 1.329-1.578.25 0 .453.047.609.141l.25.875h.578L4.656-5.5c-.343-.125-.734-.219-1.328-.219-1.156 0-2.172.563-2.422 2.157H.328zm0 0"/></symbol><symbol overflow="visible" id="bO"><path d="M.766 0h1.171l2-4.922v-.703H.267L.187-4.172h.485l.234-.594h2.422v.047zm0 0"/></symbol><clipPath id="a"><path d="M0 .016h593.809v770.777H0zm0 0"/></clipPath><image id="b" width="1812" height="2353" xlink:href="main_image_731336843.jpg"/></defs><g clip-path="url(#a)"><use xlink:href="#b" transform="matrix(.3277 0 0 .32757 0 .018)"/></g><g fill="#ffe600"><use xlink:href="#c" x="143.929" y="628.518"/><use xlink:href="#d" x="237.666" y="628.518"/><use xlink:href="#e" x="274.148" y="628.518"/></g><g fill="#ffe600"><use xlink:href="#f" x="143.929" y="711.537"/><use xlink:href="#g" x="246.171" y="711.537"/></g><use xlink:href="#h" x="319.813" y="711.537" fill="#ffe600"/><use xlink:href="#d" x="372.518" y="711.537" fill="#ffe600"/><use xlink:href="#e" x="408.557" y="711.537" fill="#ffe600"/><g fill="#fff"><use xlink:href="#i" x="43.445" y="194.935"/><use xlink:href="#j" x="54.513" y="194.935"/><use xlink:href="#k" x="64.157" y="194.935"/><use xlink:href="#l" x="70.366" y="194.935"/><use xlink:href="#m" x="72.975" y="194.935"/><use xlink:href="#n" x="81.854" y="194.935"/><use xlink:href="#l" x="87.448" y="194.935"/><use xlink:href="#n" x="90.057" y="194.935"/><use xlink:href="#j" x="95.652" y="194.935"/><use xlink:href="#o" x="105.295" y="194.935"/><use xlink:href="#p" x="113.619" y="194.935"/></g><g fill="#fff"><use xlink:href="#q" x="43.445" y="211.932"/><use xlink:href="#r" x="57.993" y="211.932"/></g><g fill="#fff"><use xlink:href="#s" x="66.721" y="211.932"/><use xlink:href="#t" x="74.715" y="211.932"/><use xlink:href="#u" x="77.28" y="211.932"/></g><g fill="#fff"><use xlink:href="#v" x="83.324" y="211.932"/><use xlink:href="#w" x="90.852" y="211.932"/></g><g fill="#fff"><use xlink:href="#x" x="98.276" y="211.932"/><use xlink:href="#y" x="102.46" y="211.932"/><use xlink:href="#z" x="111.474" y="211.932"/><use xlink:href="#v" x="120.218" y="211.932"/><use xlink:href="#t" x="127.746" y="211.932"/></g><g fill="#fff"><use xlink:href="#A" x="43.445" y="228.928"/><use xlink:href="#B" x="53.835" y="228.928"/></g><g fill="#fff"><use xlink:href="#z" x="59.279" y="228.928"/><use xlink:href="#C" x="68.02" y="228.928"/><use xlink:href="#B" x="75.726" y="228.928"/><use xlink:href="#y" x="81.317" y="228.928"/></g><g fill="#fff"><use xlink:href="#D" x="43.445" y="245.925"/><use xlink:href="#E" x="51.979" y="245.925"/><use xlink:href="#x" x="61.067" y="245.925"/></g><g fill="#fff"><use xlink:href="#F" x="65.071" y="245.925"/><use xlink:href="#t" x="70.576" y="245.925"/><use xlink:href="#G" x="73.14" y="245.925"/><use xlink:href="#H" x="81.914" y="245.925"/><use xlink:href="#I" x="90.342" y="245.925"/><use xlink:href="#x" x="94.497" y="245.925"/></g><g fill="#fff"><use xlink:href="#F" x="98.501" y="245.925"/><use xlink:href="#x" x="104.005" y="245.925"/><use xlink:href="#w" x="108.19" y="245.925"/></g><use xlink:href="#J" x="115.508" y="245.925" fill="#fff"/><g fill="#fff"><use xlink:href="#K" x="43.445" y="293.418"/><use xlink:href="#L" x="52.009" y="293.418"/><use xlink:href="#M" x="61.727" y="293.418"/><use xlink:href="#N" x="70.051" y="293.418"/><use xlink:href="#m" x="79.319" y="293.418"/></g><g fill="#fff"><use xlink:href="#O" x="87.943" y="293.418"/><use xlink:href="#l" x="100.436" y="293.418"/><use xlink:href="#p" x="103.045" y="293.418"/><use xlink:href="#P" x="107.905" y="293.418"/></g><use xlink:href="#Q" x="112.554" y="293.418" fill="#fff"/><g fill="#fff"><use xlink:href="#o" x="121.072" y="293.418"/><use xlink:href="#R" x="129.396" y="293.418"/><use xlink:href="#l" x="136.535" y="293.418"/></g><g fill="#fff"><use xlink:href="#S" x="43.445" y="310.415"/><use xlink:href="#B" x="52.863" y="310.415"/></g><g fill="#fff"><use xlink:href="#E" x="58.623" y="310.415"/><use xlink:href="#F" x="67.711" y="310.415"/><use xlink:href="#r" x="73.215" y="310.415"/><use xlink:href="#J" x="82.169" y="310.415"/><use xlink:href="#t" x="88.693" y="310.415"/><use xlink:href="#v" x="91.257" y="310.415"/></g><g fill="#fff"><use xlink:href="#T" x="98.621" y="310.415"/><use xlink:href="#H" x="107.035" y="310.415"/><use xlink:href="#E" x="115.463" y="310.415"/><use xlink:href="#F" x="124.552" y="310.415"/><use xlink:href="#t" x="130.056" y="310.415"/></g><g fill="#fff"><use xlink:href="#F" x="43.445" y="327.411"/><use xlink:href="#r" x="48.946" y="327.411"/><use xlink:href="#C" x="57.897" y="327.411"/><use xlink:href="#t" x="65.602" y="327.411"/><use xlink:href="#U" x="68.167" y="327.411"/><use xlink:href="#E" x="77.522" y="327.411"/><use xlink:href="#I" x="86.608" y="327.411"/><use xlink:href="#F" x="90.759" y="327.411"/><use xlink:href="#E" x="96.26" y="327.411"/><use xlink:href="#B" x="105.346" y="327.411"/><use xlink:href="#v" x="110.937" y="327.411"/><use xlink:href="#I" x="118.463" y="327.411"/><use xlink:href="#t" x="122.614" y="327.411"/></g><use xlink:href="#V" x="43.445" y="344.408" fill="#fff"/><g fill="#fff"><use xlink:href="#C" x="53.058" y="344.408"/><use xlink:href="#W" x="60.767" y="344.408"/></g><g fill="#fff"><use xlink:href="#H" x="68.551" y="344.408"/><use xlink:href="#I" x="76.98" y="344.408"/><use xlink:href="#E" x="81.134" y="344.408"/><use xlink:href="#F" x="90.222" y="344.408"/><use xlink:href="#x" x="95.727" y="344.408"/><use xlink:href="#H" x="99.911" y="344.408"/><use xlink:href="#y" x="108.339" y="344.408"/></g><use xlink:href="#X" x="43.445" y="392.4" fill="#fff"/><g fill="#fff"><use xlink:href="#m" x="57.588" y="392.4"/><use xlink:href="#Y" x="66.466" y="392.4"/><use xlink:href="#Z" x="72.9" y="392.4"/><use xlink:href="#l" x="82.364" y="392.4"/><use xlink:href="#R" x="84.973" y="392.4"/><use xlink:href="#L" x="92.112" y="392.4"/><use xlink:href="#P" x="101.831" y="392.4"/><use xlink:href="#n" x="106.735" y="392.4"/><use xlink:href="#k" x="112.329" y="392.4"/><use xlink:href="#l" x="118.538" y="392.4"/></g><g fill="#fff"><use xlink:href="#S" x="43.445" y="409.397"/><use xlink:href="#r" x="52.86" y="409.397"/><use xlink:href="#B" x="61.811" y="409.397"/><use xlink:href="#C" x="67.402" y="409.397"/><use xlink:href="#C" x="75.108" y="409.397"/><use xlink:href="#t" x="82.814" y="409.397"/><use xlink:href="#w" x="85.378" y="409.397"/><use xlink:href="#r" x="92.484" y="409.397"/><use xlink:href="#C" x="101.435" y="409.397"/><use xlink:href="#C" x="109.14" y="409.397"/><use xlink:href="#B" x="116.846" y="409.397"/><use xlink:href="#J" x="122.437" y="409.397"/><use xlink:href="#t" x="128.958" y="409.397"/></g><g fill="#fff"><use xlink:href="#aa" x="43.445" y="426.394"/><use xlink:href="#H" x="48.532" y="426.394"/><use xlink:href="#B" x="56.949" y="426.394"/><use xlink:href="#t" x="62.531" y="426.394"/><use xlink:href="#F" x="65.095" y="426.394"/><use xlink:href="#r" x="70.588" y="426.394"/><use xlink:href="#C" x="79.529" y="426.394"/><use xlink:href="#t" x="87.226" y="426.394"/><use xlink:href="#aa" x="89.79" y="426.394"/><use xlink:href="#H" x="94.878" y="426.394"/><use xlink:href="#E" x="103.294" y="426.394"/><use xlink:href="#B" x="112.371" y="426.394"/><use xlink:href="#ab" x="117.953" y="426.394"/></g><g fill="#fff"><use xlink:href="#z" x="43.445" y="443.391"/><use xlink:href="#v" x="52.189" y="443.391"/></g><g fill="#fff"><use xlink:href="#s" x="59.447" y="443.391"/><use xlink:href="#t" x="67.441" y="443.391"/><use xlink:href="#ac" x="70.006" y="443.391"/></g><g fill="#fff"><use xlink:href="#C" x="81.464" y="443.391"/><use xlink:href="#C" x="89.173" y="443.391"/><use xlink:href="#ad" x="96.881" y="443.391"/></g><g fill="#fff"><use xlink:href="#ae" x="45.943" y="738.047"/><use xlink:href="#af" x="61.951" y="738.047"/></g><g fill="#fff"><use xlink:href="#ag" x="77.103" y="738.047"/><use xlink:href="#ah" x="90.461" y="738.047"/><use xlink:href="#ai" x="93.921" y="738.047"/></g><use xlink:href="#ag" x="108.448" y="738.047" fill="#fff"/><use xlink:href="#aj" x="121.371" y="738.047" fill="#fff"/><use xlink:href="#ak" x="143.857" y="738.047" fill="#fff"/><g fill="#fff"><use xlink:href="#al" x="157.89" y="738.047"/><use xlink:href="#am" x="171.623" y="738.047"/></g><use xlink:href="#an" x="181.254" y="738.047" fill="#fff"/><use xlink:href="#ao" x="193.889" y="738.047" fill="#fff"/><g fill="#fff"><use xlink:href="#af" x="208.452" y="738.047"/><use xlink:href="#ap" x="224.059" y="738.047"/></g><g fill="#fff"><use xlink:href="#aq" x="231.123" y="738.047"/><use xlink:href="#ah" x="243.581" y="738.047"/><use xlink:href="#ar" x="247.041" y="738.047"/><use xlink:href="#ap" x="256.824" y="738.047"/><use xlink:href="#aj" x="264.433" y="738.047"/></g><use xlink:href="#ag" x="286.972" y="738.047" fill="#fff"/><use xlink:href="#as" x="299.987" y="738.047" fill="#fff"/><use xlink:href="#ak" x="314.387" y="738.047" fill="#fff"/><use xlink:href="#aj" x="328.325" y="738.047" fill="#fff"/><g fill="#fff"><use xlink:href="#as" x="350.904" y="738.047"/><use xlink:href="#ah" x="365.437" y="738.047"/><use xlink:href="#at" x="368.896" y="738.047"/></g><use xlink:href="#an" x="377.237" y="738.047" fill="#fff"/><use xlink:href="#aq" x="389.988" y="738.047" fill="#fff"/><use xlink:href="#ap" x="402.208" y="738.047" fill="#fff"/><use xlink:href="#au" x="409.812" y="738.047" fill="#fff"/><use xlink:href="#al" x="425.119" y="738.047" fill="#fff"/><g fill="#fff"><use xlink:href="#ah" x="438.85" y="738.047"/><use xlink:href="#ar" x="442.309" y="738.047"/><use xlink:href="#af" x="452.093" y="738.047"/></g><g fill="#fff"><use xlink:href="#ag" x="467.245" y="738.047"/><use xlink:href="#ah" x="480.603" y="738.047"/><use xlink:href="#ao" x="484.062" y="738.047"/></g><use xlink:href="#av" x="498.613" y="738.047" fill="#fff"/><g fill="#fff"><use xlink:href="#an" x="505.924" y="738.047"/><use xlink:href="#au" x="519.182" y="738.047"/></g><use xlink:href="#ag" x="534.359" y="738.047" fill="#fff"/><use xlink:href="#ar" x="547.135" y="738.047" fill="#fff"/><g fill="#ffe600"><use xlink:href="#aw" x="46.944" y="711.451"/><use xlink:href="#ax" x="54.749" y="711.451"/></g><use xlink:href="#ay" x="63.538" y="711.451" fill="#ffe600"/><use xlink:href="#az" x="72.428" y="711.451" fill="#ffe600"/><use xlink:href="#aA" x="81.253" y="711.451" fill="#ffe600"/><use xlink:href="#aB" x="87.12" y="711.451" fill="#ffe600"/><use xlink:href="#aC" x="97.108" y="711.451" fill="#ffe600"/><g fill="#ffe600"><use xlink:href="#aD" x="105.615" y="711.451"/><use xlink:href="#aE" x="108.446" y="711.451"/></g><use xlink:href="#ay" x="118.489" y="711.451" fill="#ffe600"/><use xlink:href="#ax" x="127.361" y="711.451" fill="#ffe600"/><use xlink:href="#aF" x="136.486" y="711.451" fill="#ffe600"/><g fill="#ffe600"><use xlink:href="#aE" x="146.298" y="711.451"/><use xlink:href="#aG" x="155.962" y="711.451"/></g><g fill="#fff"><use xlink:href="#aH" x="44.445" y="259.94"/><use xlink:href="#aI" x="47.723" y="259.94"/></g><g fill="#fff"><use xlink:href="#aJ" x="44.445" y="358.425"/><use xlink:href="#aK" x="47.823" y="358.425"/></g><g fill="#fff"><use xlink:href="#aH" x="507.37" y="709.868"/><use xlink:href="#aL" x="510.628" y="709.868"/></g><g fill="#fff"><use xlink:href="#aK" x="44.445" y="456.409"/><use xlink:href="#aM" x="47.721" y="456.409"/></g><g fill="#fff"><use xlink:href="#aN" x="45.945" y="134.307"/><use xlink:href="#aO" x="51.776" y="134.307"/><use xlink:href="#aP" x="53.553" y="134.307"/></g><g fill="#fff"><use xlink:href="#aQ" x="60.426" y="134.307"/><use xlink:href="#aQ" x="64.909" y="134.307"/><use xlink:href="#aR" x="69.391" y="134.307"/><use xlink:href="#aO" x="74.183" y="134.307"/><use xlink:href="#aS" x="75.96" y="134.307"/><use xlink:href="#aT" x="78.534" y="134.307"/><use xlink:href="#aO" x="83.78" y="134.307"/><use xlink:href="#aU" x="85.557" y="134.307"/><use xlink:href="#aV" x="88.748" y="134.307"/><use xlink:href="#aQ" x="93.978" y="134.307"/><use xlink:href="#aO" x="98.461" y="134.307"/><use xlink:href="#aW" x="100.238" y="134.307"/><use xlink:href="#aS" x="102.812" y="134.307"/><use xlink:href="#aX" x="105.386" y="134.307"/><use xlink:href="#aQ" x="108.479" y="134.307"/><use xlink:href="#aO" x="112.962" y="134.307"/><use xlink:href="#aY" x="114.739" y="134.307"/><use xlink:href="#aX" x="119.636" y="134.307"/><use xlink:href="#aO" x="122.73" y="134.307"/><use xlink:href="#aU" x="124.507" y="134.307"/><use xlink:href="#aV" x="127.698" y="134.307"/><use xlink:href="#aQ" x="132.928" y="134.307"/><use xlink:href="#aO" x="137.411" y="134.307"/><use xlink:href="#aP" x="139.188" y="134.307"/></g><g fill="#fff"><use xlink:href="#aY" x="146.061" y="134.307"/><use xlink:href="#aZ" x="150.958" y="134.307"/><use xlink:href="#aW" x="154.319" y="134.307"/></g><g fill="#fff"><use xlink:href="#ba" x="156.813" y="134.307"/><use xlink:href="#aO" x="161.987" y="134.307"/><use xlink:href="#bb" x="163.764" y="134.307"/><use xlink:href="#aO" x="165.866" y="134.307"/></g><use xlink:href="#bc" x="167.637" y="134.307" fill="#fff"/><g fill="#fff"><use xlink:href="#bd" x="173.396" y="134.307"/><use xlink:href="#be" x="175.971" y="134.307"/><use xlink:href="#bf" x="180.513" y="134.307"/><use xlink:href="#bg" x="185.192" y="134.307"/><use xlink:href="#bd" x="190.042" y="134.307"/><use xlink:href="#bh" x="192.617" y="134.307"/><use xlink:href="#bi" x="194.394" y="134.307"/><use xlink:href="#bj" x="198.383" y="134.307"/><use xlink:href="#bk" x="203.379" y="134.307"/><use xlink:href="#bl" x="205.954" y="134.307"/><use xlink:href="#bk" x="209.041" y="134.307"/><use xlink:href="#be" x="211.617" y="134.307"/><use xlink:href="#bm" x="216.158" y="134.307"/></g><g fill="#fff"><use xlink:href="#bn" x="45.945" y="144.805"/><use xlink:href="#bo" x="50.88" y="144.805"/><use xlink:href="#bp" x="55.618" y="144.805"/><use xlink:href="#bq" x="57.648" y="144.805"/></g><use xlink:href="#br" x="61.445" y="144.805" fill="#fff"/><use xlink:href="#bs" x="67.474" y="144.805" fill="#fff"/><use xlink:href="#bt" x="74.052" y="144.805" fill="#fff"/><g fill="#fff"><use xlink:href="#br" x="80.045" y="144.805"/><use xlink:href="#bu" x="86.07" y="144.805"/></g><g fill="#fff"><use xlink:href="#bv" x="91.523" y="144.805"/><use xlink:href="#bp" x="97.206" y="144.805"/><use xlink:href="#bn" x="99.236" y="144.805"/><use xlink:href="#bw" x="104.171" y="144.805"/><use xlink:href="#bn" x="110.133" y="144.805"/><use xlink:href="#bx" x="115.069" y="144.805"/></g><g fill="#fff"><use xlink:href="#by" x="119.824" y="144.805"/><use xlink:href="#bz" x="121.77" y="144.805"/><use xlink:href="#by" x="124.211" y="144.805"/></g><g fill="#fff"><use xlink:href="#bA" x="125.971" y="144.805"/><use xlink:href="#bB" x="131.748" y="144.805"/></g><use xlink:href="#bC" x="138.029" y="144.805" fill="#fff"/><use xlink:href="#bD" x="143.462" y="144.805" fill="#fff"/><use xlink:href="#bE" x="146.581" y="144.805" fill="#fff"/><use xlink:href="#bF" x="151.736" y="144.805" fill="#fff"/><g fill="#fff"><use xlink:href="#bG" x="157.648" y="144.805"/><use xlink:href="#by" x="162.952" y="144.805"/><use xlink:href="#bH" x="164.899" y="144.805"/><use xlink:href="#bI" x="171.381" y="144.805"/></g><use xlink:href="#bD" x="176.35" y="144.805" fill="#fff"/><use xlink:href="#bJ" x="179.235" y="144.805" fill="#fff"/><g fill="#fff"><use xlink:href="#by" x="184.585" y="144.805"/><use xlink:href="#bz" x="186.532" y="144.805"/><use xlink:href="#by" x="188.974" y="144.805"/><use xlink:href="#bK" x="190.921" y="144.805"/><use xlink:href="#bJ" x="195.984" y="144.805"/></g><g fill="#fff"><use xlink:href="#bD" x="201.521" y="144.805"/><use xlink:href="#bL" x="204.455" y="144.805"/></g><g fill="#fff"><use xlink:href="#bM" x="209.891" y="144.805"/><use xlink:href="#by" x="214.704" y="144.805"/><use xlink:href="#bz" x="216.651" y="144.805"/><use xlink:href="#by" x="219.093" y="144.805"/><use xlink:href="#bN" x="221.04" y="144.805"/></g><use xlink:href="#bO" x="226.873" y="144.805" fill="#fff"/><g fill="#fff"><use xlink:href="#bD" x="231.038" y="144.805"/><use xlink:href="#bL" x="233.972" y="144.805"/></g><use xlink:href="#bL" x="239.368" y="144.805" fill="#fff"/><use xlink:href="#by" x="244.344" y="144.805" fill="#fff"/></svg>