<svg xmlns="http://www.w3.org/2000/svg" xml:space="preserve" viewBox="0 0 84 84">
  <path fill="#fff" d="M77.3 11.5v21.3c0 1.9 1.5 3.4 3.4 3.4s3.4-1.5 3.4-3.4V3.4c0-.2 0-.4-.1-.7 0-.1-.1-.2-.1-.3 0-.1-.1-.2-.1-.3 0-.1-.1-.2-.2-.3 0-.1-.1-.2-.1-.3-.2-.2-.3-.4-.5-.5-.2-.2-.3-.3-.5-.4-.1-.1-.2-.1-.3-.1-.1-.1-.2-.1-.3-.2-.1 0-.2-.1-.4-.1-.1 0-.2-.1-.3-.1-.1-.1-.4-.1-.6-.1H51.2c-1.9 0-3.4 1.5-3.4 3.4s1.5 3.4 3.4 3.4h21.3L47.2 32.1c-.7.7-1 1.5-1 2.4 0 .9.3 1.7 1 2.4 1.3 1.3 3.4 1.3 4.8 0l25.3-25.4zM1 83c.2.2.3.3.5.4.1.1.2.1.3.1.1.1.2.1.3.2.1 0 .2.1.3.1.1 0 .2.1.3.1.2.1.4.1.7.1h29.4c1.9 0 3.4-1.5 3.4-3.4s-1.5-3.4-3.4-3.4H11.5l25.3-25.3c1.3-1.3 1.3-3.4 0-4.8-1.3-1.3-3.4-1.3-4.8 0L6.7 72.5V51.2c0-1.9-1.5-3.4-3.4-3.4s-3.4 1.5-3.4 3.4v29.4c0 .2 0 .4.1.7 0 .1.1.2.1.3 0 .1.1.2.1.3 0 .1.1.2.2.3 0 .1.1.2.1.3l.5.5z"/>
</svg>
