<svg xmlns="http://www.w3.org/2000/svg" fill="none" viewBox="0 0 50 50">
  <path fill="#FFF" d="m42.7535 35.6945.7534.7493 6.2609-6.2269L19.8783.5l-6.2609 6.22688.7584.75432c.8808.91072 1.3671 2.12875 1.3545 3.3923-.0126 1.2635-.5231 2.4717-1.4218 3.3649-.8988.8932-2.114 1.4-3.3844 1.4116-1.27048.0116-2.4948-.473-3.40985-1.3496l-.75334-.7493L.5 19.778 30.3895 49.5l6.2609-6.2117-.7584-.7492c-.4519-.4481-.8106-.9803-1.0557-1.5663-.2451-.586-.3717-1.2142-.3726-1.8488-.001-.6347.1238-1.2633.3671-1.85.2433-.5866.6004-1.1199 1.051-1.5693.4505-.4494.9856-.8062 1.5748-1.0499.5892-.2438 1.2208-.3697 1.8589-.3706.6381-.001 1.2702.1231 1.8601.3651.5898.242 1.126.5972 1.5779 1.0452Zm-9.0961 7.5482c-1.8062.007-3.2679 3.2552-3.2679 3.2552L3.51848 19.778l3.27297-3.2552c1.34775.994 3.00948 1.4738 4.68285 1.352 1.6734-.1217 3.2473-.8369 4.4352-2.0153 1.188-1.1785 1.9112-2.7419 2.0379-4.4059.1268-1.66396-.3513-3.3179-1.3472-4.6609l3.3035-3.28557L46.7391 30.1967l-3.3035 3.2855c-1.3512-.9796-3.0105-1.4457-4.6773-1.3139-1.6669.1317-3.2313.8527-4.41 2.0323-1.1786 1.1796-1.8937 2.7399-2.0158 4.3985-.1221 1.6586.3569 3.3059 1.3503 4.6436.9934 1.3378 1.7808-.0069-.0254 0Z"/>
</svg>
