<svg xmlns="http://www.w3.org/2000/svg" viewBox="0 0 500 500"><path fill="#ffcb95" d="M0 0h500v500H0z"/><circle cx="250" cy="250" r="185" fill="#0d2481"/><path fill="#ffcb95" d="m154.6762 270.5872 13.366-33.75-8.64-22.4107h-8.37v-7.154h43.74v7.154h-14.58l20.6543 55.7552 22.0062-55.7552h-15.5254v-7.154h34.0205v7.154h-10.2594l-36.5869 90.4529-22.6794-58.5918-23.8955 58.5918-37.6659-90.4529H100v-7.154h42.2561v7.154h-10.395Zm105.1814 31.1852c-17.28 0-30.5107-13.23-30.5107-31.32 0-17.28 14.3107-33.0758 31.591-33.0758 16.3343 0 26.0548 12.42 26.0548 26.325H245.817c.27 13.5017 9.5861 22.4106 21.7374 22.4106 7.4228 0 14.7138-2.97 19.304-8.9089-2.1607 15.2544-13.3647 24.5691-27.0008 24.5691Zm-13.6348-43.8753h22.14c0-8.5045-3.9156-14.3094-10.395-14.3094-5.9401 0-10.5303 5.2648-11.745 14.3094Zm52.9253-43.8753-11.61-9.7205 31.591-9.18v98.5515h7.02v6.7509h-34.02v-6.7509h7.02Zm39.2878 0-11.61-9.7205 31.591-9.18v98.5515h7.02v6.7509h-34.02v-6.7509h7.02Zm48.4708 87.6162a12.6831 12.6831 0 0 1-12.9615-12.8245 13.029 13.029 0 1 1 26.0548 0c0 7.154-5.3991 12.8245-13.0933 12.8245Z"/></svg>