<svg xmlns="http://www.w3.org/2000/svg" viewBox="0 0 916.45 122.5"><g id="图层_2" data-name="图层 2"><g id="图层_1-2" data-name="图层 1"><circle cx="61.25" cy="61.25" r="61.25"/><path d="M141,45.78v-37l7.56,4.06H232l7.56-4.06v37L218.28,20.72h-15.4v80.92h16.38v7.84h-58v-7.84h16.38V20.72h-15.4Z"/><path d="M296.82,12.88v7.84h-13V55.3H323V20.72H310V12.88h51.24v7.84h-13v80.92h13v7.84H310v-7.84h13V63.14H283.8v38.5h13v7.84H245.58v-7.84h13V20.72h-13V12.88Z"/><path d="M432.76,38.92V79.66L418.9,63.14H406.16v38.5H429.4l28.14-31.5-5.88,39.34H367.94v-7.84h13V20.72h-13V12.88h75l7.56-4.06v37L429.26,20.72h-23.1V55.3H418.9Z"/><path d="M547.69,74.62,560.15,44.1l-9.38-23.38h-8.12V12.88h47v7.84H575.27L595.85,74.2l21.56-53.48H601.59V12.88h35v7.84H626.37l-38.36,93-23.8-59.5-24.78,59.5-39.76-93H489.45V12.88h45.22v7.84h-9.52Z"/><path d="M704.77,38.92V79.66L690.91,63.14H678.17v38.5h23.24l28.14-31.5-5.88,39.34H640v-7.84h13V20.72H640V12.88h75l7.56-4.06v37L701.27,20.72h-23.1V55.3h12.74Z"/><path d="M736.83,20.72V12.88h51.24v7.84h-13v80.92h20.44l28.14-31.5-5.88,39.34H736.83v-7.84h13V20.72Z"/><path d="M829.65,20.72V12.88h51.24v7.84h-13v80.92h20.44l28.14-31.5-5.88,39.34H829.65v-7.84h13V20.72Z"/></g></g></svg>